<svg xmlns="http://www.w3.org/2000/svg" width="156" height="160" fill="none"><mask id="a" width="156" height="160" x="0" y="0" maskUnits="userSpaceOnUse" style="mask-type:luminance"><path fill="#fff" d="M155.856 0H0v159.244h155.856V0z"/></mask><g mask="url(#a)"><path fill="url(#b)" d="M27.914 125.492s.035-.022.062-.027c-.517-.387-1.047-.756-1.551-1.156a1.613 1.613 0 0 0 1.489 1.183z"/><path fill="url(#c)" d="M27.914 125.492s.035-.022.062-.027c-.517-.387-1.047-.756-1.551-1.156a1.613 1.613 0 0 0 1.489 1.183z"/><path fill="url(#d)" d="M39.896 136.051a1.79 1.79 0 0 0-1.669 1.085 1.776 1.776 0 0 0 .38 1.951 1.783 1.783 0 0 0 3.045-1.279 1.786 1.786 0 0 0-1.756-1.757z"/><path fill="url(#e)" d="M39.896 136.051a1.79 1.79 0 0 0-1.669 1.085 1.776 1.776 0 0 0 .38 1.951 1.783 1.783 0 0 0 3.045-1.279 1.786 1.786 0 0 0-1.756-1.757z"/><path fill="url(#f)" d="M46.605 135.5a1.778 1.778 0 0 0 1.783 1.757 1.67 1.67 0 0 0 1.337-.712c-1.043-.316-2.05-.703-3.072-1.067-.035.008-.048.013-.048.022z"/><path fill="url(#g)" d="M46.605 135.5a1.778 1.778 0 0 0 1.783 1.757 1.67 1.67 0 0 0 1.337-.712c-1.043-.316-2.05-.703-3.072-1.067-.035.008-.048.013-.048.022z"/><path fill="url(#h)" d="M47.335 142.097a1.758 1.758 0 1 0 1.488 2.731 1.758 1.758 0 0 0-1.488-2.731z"/><path fill="url(#i)" d="M47.335 142.097a1.758 1.758 0 1 0 1.488 2.731 1.758 1.758 0 0 0-1.488-2.731z"/><path fill="url(#j)" d="M54.762 148.11a1.72 1.72 0 0 0-1.586 1.058 1.707 1.707 0 0 0 .373 1.866 1.717 1.717 0 0 0 2.8-1.867 1.705 1.705 0 0 0-.93-.927 1.724 1.724 0 0 0-.657-.13z"/><path fill="url(#k)" d="M54.762 148.11a1.72 1.72 0 0 0-1.586 1.058 1.707 1.707 0 0 0 .373 1.866 1.717 1.717 0 0 0 2.8-1.867 1.705 1.705 0 0 0-.93-.927 1.724 1.724 0 0 0-.657-.13z"/><path fill="url(#l)" d="M63.971 151.82a1.746 1.746 0 0 0-1.714 2.084 1.745 1.745 0 0 0 2.383 1.271 1.742 1.742 0 0 0-.669-3.355z"/><path fill="url(#m)" d="M63.971 151.82a1.746 1.746 0 0 0-1.714 2.084 1.745 1.745 0 0 0 2.383 1.271 1.742 1.742 0 0 0-.669-3.355z"/><path fill="url(#n)" d="M72.864 153.431a1.765 1.765 0 0 0-1.627 1.085 1.755 1.755 0 0 0 1.287 2.396 1.766 1.766 0 0 0 1.807-.751 1.757 1.757 0 0 0 .161-1.65 1.752 1.752 0 0 0-1.628-1.08z"/><path fill="url(#o)" d="M72.864 153.431a1.765 1.765 0 0 0-1.627 1.085 1.755 1.755 0 0 0 1.287 2.396 1.766 1.766 0 0 0 1.807-.751 1.757 1.757 0 0 0 .161-1.65 1.752 1.752 0 0 0-1.628-1.08z"/><path fill="url(#p)" d="M78.11 146.594a1.766 1.766 0 0 0-1.608 1.095 1.753 1.753 0 0 0 .386 1.904c.245.245.556.412.896.48a1.76 1.76 0 0 0 1.981-2.385 1.76 1.76 0 0 0-1.655-1.094z"/><path fill="url(#q)" d="M78.11 146.594a1.766 1.766 0 0 0-1.608 1.095 1.753 1.753 0 0 0 .386 1.904c.245.245.556.412.896.48a1.76 1.76 0 0 0 1.981-2.385 1.76 1.76 0 0 0-1.655-1.094z"/><path fill="url(#r)" d="M86.42 148.159a1.79 1.79 0 0 0-1.668 1.085 1.776 1.776 0 0 0 1.297 2.44c.348.069.709.032 1.036-.106a1.78 1.78 0 0 0 1.091-1.662 1.786 1.786 0 0 0-1.756-1.757z"/><path fill="url(#s)" d="M86.42 148.159a1.79 1.79 0 0 0-1.668 1.085 1.776 1.776 0 0 0 1.297 2.44c.348.069.709.032 1.036-.106a1.78 1.78 0 0 0 1.091-1.662 1.786 1.786 0 0 0-1.756-1.757z"/><path fill="url(#t)" d="M81.668 155.076a1.76 1.76 0 0 0-1.733 2.089 1.754 1.754 0 0 0 1.37 1.388 1.757 1.757 0 0 0 1.812-.727c.196-.286.303-.624.308-.971a1.785 1.785 0 0 0-1.756-1.779z"/><path fill="url(#u)" d="M81.668 155.076a1.76 1.76 0 0 0-1.733 2.089 1.754 1.754 0 0 0 1.37 1.388 1.757 1.757 0 0 0 1.812-.727c.196-.286.303-.624.308-.971a1.785 1.785 0 0 0-1.756-1.779z"/><path fill="url(#v)" d="M91.19 155.73a1.758 1.758 0 1 0 .7 3.378 1.755 1.755 0 0 0 1.082-1.621 1.778 1.778 0 0 0-1.782-1.757z"/><path fill="url(#w)" d="M91.19 155.73a1.758 1.758 0 1 0 .7 3.378 1.755 1.755 0 0 0 1.082-1.621 1.778 1.778 0 0 0-1.782-1.757z"/><path fill="url(#x)" d="M100.345 153.435a1.759 1.759 0 0 0-1.259 2.99 1.757 1.757 0 0 0 1.912.397 1.759 1.759 0 0 0 1.103-1.608 1.772 1.772 0 0 0-.512-1.248 1.787 1.787 0 0 0-1.244-.531z"/><path fill="url(#y)" d="M100.345 153.435a1.759 1.759 0 0 0-1.259 2.99 1.757 1.757 0 0 0 1.912.397 1.759 1.759 0 0 0 1.103-1.608 1.772 1.772 0 0 0-.512-1.248 1.787 1.787 0 0 0-1.244-.531z"/><path fill="url(#z)" d="M95 147.336a1.769 1.769 0 0 0-1.63 1.083 1.753 1.753 0 0 0 .381 1.917 1.764 1.764 0 0 0 2.711-.269 1.757 1.757 0 0 0-1.461-2.731z"/><path fill="url(#A)" d="M95 147.336a1.769 1.769 0 0 0-1.63 1.083 1.753 1.753 0 0 0 .381 1.917 1.764 1.764 0 0 0 2.711-.269 1.757 1.757 0 0 0-1.461-2.731z"/><path fill="url(#B)" d="M103.274 144.667a1.763 1.763 0 0 0-1.627 1.086 1.758 1.758 0 0 0 2.304 2.294 1.761 1.761 0 0 0 .95-2.299 1.738 1.738 0 0 0-.953-.948 1.772 1.772 0 0 0-.674-.133z"/><path fill="url(#C)" d="M103.274 144.667a1.763 1.763 0 0 0-1.627 1.086 1.758 1.758 0 0 0 2.304 2.294 1.761 1.761 0 0 0 .95-2.299 1.738 1.738 0 0 0-.953-.948 1.772 1.772 0 0 0-.674-.133z"/><path fill="url(#D)" d="M108.926 151.335a1.767 1.767 0 0 0-1.627 1.086 1.758 1.758 0 0 0 .383 1.915 1.765 1.765 0 0 0 2.71-.271 1.758 1.758 0 0 0-.792-2.599 1.77 1.77 0 0 0-.674-.131z"/><path fill="url(#E)" d="M108.926 151.335a1.767 1.767 0 0 0-1.627 1.086 1.758 1.758 0 0 0 .383 1.915 1.765 1.765 0 0 0 2.71-.271 1.758 1.758 0 0 0-.792-2.599 1.77 1.77 0 0 0-.674-.131z"/><path fill="url(#F)" d="M116.772 147.728a1.76 1.76 0 0 0-1.702 2.113 1.759 1.759 0 0 0 2.403 1.265 1.763 1.763 0 0 0 1.082-1.621 1.782 1.782 0 0 0-1.783-1.757z"/><path fill="url(#G)" d="M116.772 147.728a1.76 1.76 0 0 0-1.702 2.113 1.759 1.759 0 0 0 2.403 1.265 1.763 1.763 0 0 0 1.082-1.621 1.782 1.782 0 0 0-1.783-1.757z"/><path fill="url(#H)" d="M111.262 141.576a1.759 1.759 0 0 0-1.244 3.001 1.758 1.758 0 0 0 1.921.378 1.755 1.755 0 0 0-.677-3.379z"/><path fill="url(#I)" d="M111.262 141.576a1.759 1.759 0 0 0-1.244 3.001 1.758 1.758 0 0 0 1.921.378 1.755 1.755 0 0 0-.677-3.379z"/><path fill="url(#J)" d="M105.561 135.478a1.777 1.777 0 0 0-.385 3.522 1.784 1.784 0 0 0 2.141-1.743 1.777 1.777 0 0 0-1.756-1.779z"/><path fill="url(#K)" d="M105.561 135.478a1.777 1.777 0 0 0-.385 3.522 1.784 1.784 0 0 0 2.141-1.743 1.777 1.777 0 0 0-1.756-1.779z"/><path fill="url(#L)" d="M99.204 139.997a1.754 1.754 0 0 0-1.088-1.623 1.765 1.765 0 0 0-1.92.382 1.76 1.76 0 0 0-.378 1.917 1.759 1.759 0 0 0 2.303.947 1.739 1.739 0 0 0 .95-.951c.089-.213.134-.441.133-.672z"/><path fill="url(#M)" d="M99.204 139.997a1.754 1.754 0 0 0-1.088-1.623 1.765 1.765 0 0 0-1.92.382 1.76 1.76 0 0 0-.378 1.917 1.759 1.759 0 0 0 2.303.947 1.739 1.739 0 0 0 .95-.951c.089-.213.134-.441.133-.672z"/><path fill="url(#N)" d="M91.765 142.386a1.753 1.753 0 0 0-1.082-1.621 1.761 1.761 0 0 0-2.403 1.265 1.752 1.752 0 0 0 .73 1.806 1.766 1.766 0 0 0 2.62-.772 1.75 1.75 0 0 0 .135-.678z"/><path fill="url(#O)" d="M91.765 142.386a1.753 1.753 0 0 0-1.082-1.621 1.761 1.761 0 0 0-2.403 1.265 1.752 1.752 0 0 0 .73 1.806 1.766 1.766 0 0 0 2.62-.772 1.75 1.75 0 0 0 .135-.678z"/><path fill="url(#P)" d="M82.465 139.41a1.762 1.762 0 0 0-1.732 2.099 1.758 1.758 0 0 0 2.404 1.281 1.755 1.755 0 0 0-.671-3.38z"/><path fill="url(#Q)" d="M82.465 139.41a1.762 1.762 0 0 0-1.732 2.099 1.758 1.758 0 0 0 2.404 1.281 1.755 1.755 0 0 0-.671-3.38z"/><path fill="url(#R)" d="M65.13 139.801a1.717 1.717 0 0 0 1.066-.445c-.776-.044-1.56-.053-2.327-.12a1.723 1.723 0 0 0 1.262.565z"/><path fill="url(#S)" d="M65.13 139.801a1.717 1.717 0 0 0 1.066-.445c-.776-.044-1.56-.053-2.327-.12a1.723 1.723 0 0 0 1.262.565z"/><path fill="url(#T)" d="M69.846 145.095a1.76 1.76 0 0 0-1.731 2.098 1.754 1.754 0 0 0 1.384 1.382 1.758 1.758 0 1 0 .347-3.48z"/><path fill="url(#U)" d="M69.846 145.095a1.76 1.76 0 0 0-1.731 2.098 1.754 1.754 0 0 0 1.384 1.382 1.758 1.758 0 1 0 .347-3.48z"/><path fill="url(#V)" d="M63.816 145.593a1.752 1.752 0 0 0-1.084-1.626 1.756 1.756 0 0 0-1.92.378 1.753 1.753 0 0 0 .264 2.704c.29.193.63.297.979.297a1.784 1.784 0 0 0 1.76-1.753z"/><path fill="url(#W)" d="M63.816 145.593a1.752 1.752 0 0 0-1.084-1.626 1.756 1.756 0 0 0-1.92.378 1.753 1.753 0 0 0 .264 2.704c.29.193.63.297.979.297a1.784 1.784 0 0 0 1.76-1.753z"/><path fill="url(#X)" d="M55.595 139.001a1.759 1.759 0 0 0-1.215 3.007 1.759 1.759 0 0 0 1.916.371 1.756 1.756 0 0 0 1.082-1.621 1.778 1.778 0 0 0-1.783-1.757z"/><path fill="url(#Y)" d="M55.595 139.001a1.759 1.759 0 0 0-1.215 3.007 1.759 1.759 0 0 0 1.916.371 1.756 1.756 0 0 0 1.082-1.621 1.778 1.778 0 0 0-1.783-1.757z"/><path fill="url(#Z)" d="M138.03 92.94a1.763 1.763 0 0 0-1.611 1.1 1.758 1.758 0 0 0 2.316 2.276 1.76 1.76 0 0 0 .555-2.873 1.76 1.76 0 0 0-1.26-.503z"/><path fill="url(#aa)" d="M138.03 92.94a1.763 1.763 0 0 0-1.611 1.1 1.758 1.758 0 0 0 2.316 2.276 1.76 1.76 0 0 0 .555-2.873 1.76 1.76 0 0 0-1.26-.503z"/><path fill="url(#ab)" d="M137.967 100.72a1.763 1.763 0 0 0-1.733 2.089c.066.34.231.654.474.901a1.767 1.767 0 0 0 1.912.397 1.76 1.76 0 0 0 1.104-1.608 1.782 1.782 0 0 0-1.757-1.779z"/><path fill="url(#ac)" d="M137.967 100.72a1.763 1.763 0 0 0-1.733 2.089c.066.34.231.654.474.901a1.767 1.767 0 0 0 1.912.397 1.76 1.76 0 0 0 1.104-1.608 1.782 1.782 0 0 0-1.757-1.779z"/><path fill="url(#ad)" d="M136.332 109.203a1.762 1.762 0 0 0-3.489-.313 1.754 1.754 0 0 0 .752 1.797 1.765 1.765 0 0 0 2.611-.805c.087-.216.129-.447.126-.679z"/><path fill="url(#ae)" d="M136.332 109.203a1.762 1.762 0 0 0-3.489-.313 1.754 1.754 0 0 0 .752 1.797 1.765 1.765 0 0 0 2.611-.805c.087-.216.129-.447.126-.679z"/><path fill="url(#af)" d="M128.594 116.395a1.758 1.758 0 0 0 3.006 1.242 1.76 1.76 0 0 0 .381-1.915 1.757 1.757 0 0 0-1.626-1.084 1.754 1.754 0 0 0-1.761 1.757z"/><path fill="url(#ag)" d="M128.594 116.395a1.758 1.758 0 0 0 3.006 1.242 1.76 1.76 0 0 0 .381-1.915 1.757 1.757 0 0 0-1.626-1.084 1.754 1.754 0 0 0-1.761 1.757z"/><path fill="url(#ah)" d="M125.526 122.16a1.764 1.764 0 0 0-1.624 1.079 1.754 1.754 0 0 0 1.267 2.398 1.765 1.765 0 0 0 1.81-.728 1.746 1.746 0 0 0 .18-1.649 1.754 1.754 0 0 0-1.633-1.1z"/><path fill="url(#ai)" d="M125.526 122.16a1.764 1.764 0 0 0-1.624 1.079 1.754 1.754 0 0 0 1.267 2.398 1.765 1.765 0 0 0 1.81-.728 1.746 1.746 0 0 0 .18-1.649 1.754 1.754 0 0 0-1.633-1.1z"/><path fill="url(#aj)" d="M114.19 124.41a1.754 1.754 0 0 0 1.087 1.624 1.769 1.769 0 0 0 1.919-.381 1.76 1.76 0 0 0 .382-1.915 1.755 1.755 0 0 0-1.627-1.085c-.374.025-.73.172-1.012.418-.107.089-.2.192-.307.281a1.707 1.707 0 0 0-.442 1.058z"/><path fill="url(#ak)" d="M114.19 124.41a1.754 1.754 0 0 0 1.087 1.624 1.769 1.769 0 0 0 1.919-.381 1.76 1.76 0 0 0 .382-1.915 1.755 1.755 0 0 0-1.627-1.085c-.374.025-.73.172-1.012.418-.107.089-.2.192-.307.281a1.707 1.707 0 0 0-.442 1.058z"/><path fill="url(#al)" d="M115.586 133.85c0-.348-.103-.687-.297-.976a1.762 1.762 0 0 0-3.191.633 1.754 1.754 0 0 0 .749 1.804c.29.193.63.296.978.296a1.778 1.778 0 0 0 1.761-1.757z"/><path fill="url(#am)" d="M115.586 133.85c0-.348-.103-.687-.297-.976a1.762 1.762 0 0 0-3.191.633 1.754 1.754 0 0 0 .749 1.804c.29.193.63.296.978.296a1.778 1.778 0 0 0 1.761-1.757z"/><path fill="url(#an)" d="M123.971 131.83a1.777 1.777 0 0 0-1.087-1.665 1.79 1.79 0 0 0-1.955.379 1.776 1.776 0 0 0 .282 2.748c.297.194.645.295.999.291a1.757 1.757 0 0 0 1.761-1.753z"/><path fill="url(#ao)" d="M123.971 131.83a1.777 1.777 0 0 0-1.087-1.665 1.79 1.79 0 0 0-1.955.379 1.776 1.776 0 0 0 .282 2.748c.297.194.645.295.999.291a1.757 1.757 0 0 0 1.761-1.753z"/><path fill="url(#ap)" d="M130.983 128.792a1.755 1.755 0 0 0-.313 3.482 1.762 1.762 0 0 0 2.096-1.725 1.782 1.782 0 0 0-1.783-1.757z"/><path fill="url(#aq)" d="M130.983 128.792a1.755 1.755 0 0 0-.313 3.482 1.762 1.762 0 0 0 2.096-1.725 1.782 1.782 0 0 0-1.783-1.757z"/><path fill="url(#ar)" d="M119.411 138.507a1.764 1.764 0 0 0-1.624 1.079 1.748 1.748 0 0 0 .371 1.912 1.758 1.758 0 0 0 1.912.395 1.754 1.754 0 0 0 1.102-1.607 1.759 1.759 0 0 0-1.081-1.645 1.765 1.765 0 0 0-.68-.134z"/><path fill="url(#as)" d="M119.411 138.507a1.764 1.764 0 0 0-1.624 1.079 1.748 1.748 0 0 0 .371 1.912 1.758 1.758 0 0 0 1.912.395 1.754 1.754 0 0 0 1.102-1.607 1.759 1.759 0 0 0-1.081-1.645 1.765 1.765 0 0 0-.68-.134z"/><path fill="url(#at)" d="M124.84 144.57a1.729 1.729 0 0 0-1.593 1.062 1.721 1.721 0 0 0 2.253 2.25 1.723 1.723 0 0 0-.66-3.312z"/><path fill="url(#au)" d="M124.84 144.57a1.729 1.729 0 0 0-1.593 1.062 1.721 1.721 0 0 0 2.253 2.25 1.723 1.723 0 0 0-.66-3.312z"/><path fill="url(#av)" d="M128.517 137.354a1.756 1.756 0 0 0-.347 3.481 1.768 1.768 0 0 0 1.809-.75c.193-.29.295-.63.294-.978a1.757 1.757 0 0 0-1.756-1.753z"/><path fill="url(#aw)" d="M128.517 137.354a1.756 1.756 0 0 0-.347 3.481 1.768 1.768 0 0 0 1.809-.75c.193-.29.295-.63.294-.978a1.757 1.757 0 0 0-1.756-1.753z"/><path fill="url(#ax)" d="M136.568 138.485c.94 0 1.703-.761 1.703-1.699 0-.939-.763-1.7-1.703-1.7-.94 0-1.703.761-1.703 1.7 0 .938.763 1.699 1.703 1.699z"/><path fill="url(#ay)" d="M136.568 138.485c.94 0 1.703-.761 1.703-1.699 0-.939-.763-1.7-1.703-1.7-.94 0-1.703.761-1.703 1.7 0 .938.763 1.699 1.703 1.699z"/><path fill="url(#az)" d="M140.205 127.355a1.788 1.788 0 0 0-1.666 1.08 1.773 1.773 0 0 0 .369 1.948 1.791 1.791 0 0 0 1.947.398 1.784 1.784 0 0 0 1.107-1.647 1.78 1.78 0 0 0-1.757-1.779z"/><path fill="url(#aA)" d="M140.205 127.355a1.788 1.788 0 0 0-1.666 1.08 1.773 1.773 0 0 0 .369 1.948 1.791 1.791 0 0 0 1.947.398 1.784 1.784 0 0 0 1.107-1.647 1.78 1.78 0 0 0-1.757-1.779z"/><path fill="url(#aB)" d="M136.969 122.859a1.752 1.752 0 0 0-1.087-1.624 1.77 1.77 0 0 0-1.919.381 1.76 1.76 0 0 0-.382 1.915 1.767 1.767 0 0 0 1.627 1.085 1.78 1.78 0 0 0 1.761-1.757z"/><path fill="url(#aC)" d="M136.969 122.859a1.752 1.752 0 0 0-1.087-1.624 1.77 1.77 0 0 0-1.919.381 1.76 1.76 0 0 0-.382 1.915 1.767 1.767 0 0 0 1.627 1.085 1.78 1.78 0 0 0 1.761-1.757z"/><path fill="url(#aD)" d="M140.134 117.654a1.765 1.765 0 0 0 1.627-1.085 1.754 1.754 0 0 0-1.284-2.396 1.757 1.757 0 1 0-.343 3.481z"/><path fill="url(#aE)" d="M140.134 117.654a1.765 1.765 0 0 0 1.627-1.085 1.754 1.754 0 0 0-1.284-2.396 1.757 1.757 0 1 0-.343 3.481z"/><path fill="url(#aF)" d="M145.698 120.803a1.748 1.748 0 0 0-1.714 2.086 1.744 1.744 0 0 0 2.385 1.268 1.747 1.747 0 0 0 .943-2.281 1.755 1.755 0 0 0-.946-.942 1.76 1.76 0 0 0-.668-.131z"/><path fill="url(#aG)" d="M145.698 120.803a1.748 1.748 0 0 0-1.714 2.086 1.744 1.744 0 0 0 2.385 1.268 1.747 1.747 0 0 0 .943-2.281 1.755 1.755 0 0 0-.946-.942 1.76 1.76 0 0 0-.668-.131z"/><path fill="url(#aH)" d="M149.357 112.365a1.76 1.76 0 0 0-1.702 2.115 1.762 1.762 0 1 0 3.348-1.039 1.753 1.753 0 0 0-1.646-1.076z"/><path fill="url(#aI)" d="M149.357 112.365a1.76 1.76 0 0 0-1.702 2.115 1.762 1.762 0 1 0 3.348-1.039 1.753 1.753 0 0 0-1.646-1.076z"/><path fill="url(#aJ)" d="M145.661 108.05a1.752 1.752 0 0 0-1.088-1.624 1.764 1.764 0 0 0-2.4 1.284 1.755 1.755 0 0 0 1.732 2.097 1.754 1.754 0 0 0 1.625-1.084c.088-.214.132-.442.131-.673z"/><path fill="url(#aK)" d="M145.661 108.05a1.752 1.752 0 0 0-1.088-1.624 1.764 1.764 0 0 0-2.4 1.284 1.755 1.755 0 0 0 1.732 2.097 1.754 1.754 0 0 0 1.625-1.084c.088-.214.132-.442.131-.673z"/><path fill="url(#aL)" d="M152.294 103.22a1.759 1.759 0 0 0-1.703 2.105 1.764 1.764 0 0 0 3.18.642 1.754 1.754 0 0 0-.791-2.618 1.772 1.772 0 0 0-.686-.129z"/><path fill="url(#aM)" d="M152.294 103.22a1.759 1.759 0 0 0-1.703 2.105 1.764 1.764 0 0 0 3.18.642 1.754 1.754 0 0 0-.791-2.618 1.772 1.772 0 0 0-.686-.129z"/><path fill="url(#aN)" d="M145.826 97.54a1.787 1.787 0 0 0-1.668 1.084 1.784 1.784 0 0 0-.109 1.033 1.786 1.786 0 0 0 1.407 1.407 1.781 1.781 0 0 0 1.606-3.002 1.784 1.784 0 0 0-1.236-.523z"/><path fill="url(#aO)" d="M145.826 97.54a1.787 1.787 0 0 0-1.668 1.084 1.784 1.784 0 0 0-.109 1.033 1.786 1.786 0 0 0 1.407 1.407 1.781 1.781 0 0 0 1.606-3.002 1.784 1.784 0 0 0-1.236-.523z"/><path fill="url(#aP)" d="M153.369 93.66a1.762 1.762 0 0 0-1.727 2.1 1.758 1.758 0 0 0 2.401 1.28 1.755 1.755 0 0 0 .954-2.296 1.756 1.756 0 0 0-1.628-1.084z"/><path fill="url(#aQ)" d="M153.369 93.66a1.762 1.762 0 0 0-1.727 2.1 1.758 1.758 0 0 0 2.401 1.28 1.755 1.755 0 0 0 .954-2.296 1.756 1.756 0 0 0-1.628-1.084z"/><path fill="url(#aR)" d="M154.104 84.07a1.76 1.76 0 0 0-1.626 1.08 1.753 1.753 0 0 0 1.281 2.392 1.757 1.757 0 0 0 1.964-2.392 1.744 1.744 0 0 0-.948-.947 1.755 1.755 0 0 0-.671-.133z"/><path fill="url(#aS)" d="M154.104 84.07a1.76 1.76 0 0 0-1.626 1.08 1.753 1.753 0 0 0 1.281 2.392 1.757 1.757 0 0 0 1.964-2.392 1.744 1.744 0 0 0-.948-.947 1.755 1.755 0 0 0-.671-.133z"/><path fill="url(#aT)" d="M150.908 75.992a1.75 1.75 0 0 0 1.084 1.62 1.761 1.761 0 0 0 1.914-.38 1.75 1.75 0 0 0-1.241-2.992 1.757 1.757 0 0 0-1.757 1.752z"/><path fill="url(#aU)" d="M150.908 75.992a1.75 1.75 0 0 0 1.084 1.62 1.761 1.761 0 0 0 1.914-.38 1.75 1.75 0 0 0-1.241-2.992 1.757 1.757 0 0 0-1.757 1.752z"/><path fill="url(#aV)" d="M146.295 80.067a1.764 1.764 0 0 0-1.627 1.086 1.757 1.757 0 0 0 2.304 2.293 1.762 1.762 0 0 0 .951-2.299 1.755 1.755 0 0 0-1.628-1.08z"/><path fill="url(#aW)" d="M146.295 80.067a1.764 1.764 0 0 0-1.627 1.086 1.757 1.757 0 0 0 2.304 2.293 1.762 1.762 0 0 0 .951-2.299 1.755 1.755 0 0 0-1.628-1.08z"/><path fill="url(#aX)" d="M146.147 88.78a1.76 1.76 0 0 0-1.726 2.102 1.751 1.751 0 0 0 1.386 1.38 1.761 1.761 0 0 0 1.967-2.4 1.745 1.745 0 0 0-1.627-1.08z"/><path fill="url(#aY)" d="M146.147 88.78a1.76 1.76 0 0 0-1.726 2.102 1.751 1.751 0 0 0 1.386 1.38 1.761 1.761 0 0 0 1.967-2.4 1.745 1.745 0 0 0-1.627-1.08z"/><path fill="url(#aZ)" d="M144.561 74.547a1.762 1.762 0 0 0 1.728-2.092 1.756 1.756 0 0 0-1.371-1.386 1.765 1.765 0 0 0-1.811.728 1.752 1.752 0 0 0-.307.97 1.78 1.78 0 0 0 1.761 1.78z"/><path fill="url(#ba)" d="M144.561 74.547a1.762 1.762 0 0 0 1.728-2.092 1.756 1.756 0 0 0-1.371-1.386 1.765 1.765 0 0 0-1.811.728 1.752 1.752 0 0 0-.307.97 1.78 1.78 0 0 0 1.761 1.78z"/><path fill="url(#bb)" d="M150.07 68.173a1.786 1.786 0 0 0 1.65-1.104 1.775 1.775 0 0 0-.397-1.942 1.784 1.784 0 0 0-3.036 1.289 1.78 1.78 0 0 0 1.783 1.757z"/><path fill="url(#bc)" d="M150.07 68.173a1.786 1.786 0 0 0 1.65-1.104 1.775 1.775 0 0 0-.397-1.942 1.784 1.784 0 0 0-3.036 1.289 1.78 1.78 0 0 0 1.783 1.757z"/><path fill="url(#bd)" d="M146.178 59.512a1.757 1.757 0 0 0 1.623-1.083 1.744 1.744 0 0 0-.383-1.91 1.756 1.756 0 0 0-2.481 2.483 1.749 1.749 0 0 0 1.241.51z"/><path fill="url(#be)" d="M146.178 59.512a1.757 1.757 0 0 0 1.623-1.083 1.744 1.744 0 0 0-.383-1.91 1.756 1.756 0 0 0-2.481 2.483 1.749 1.749 0 0 0 1.241.51z"/><path fill="url(#bf)" d="M141.333 51.505a1.748 1.748 0 0 0 1.718-2.083 1.744 1.744 0 0 0-2.385-1.27 1.745 1.745 0 0 0 .667 3.354z"/><path fill="url(#bg)" d="M141.333 51.505a1.748 1.748 0 0 0 1.718-2.083 1.744 1.744 0 0 0-2.385-1.27 1.745 1.745 0 0 0 .667 3.354z"/><path fill="url(#bh)" d="M52.671 49.673a1.764 1.764 0 0 0 1.63-1.082 1.753 1.753 0 0 0-1.28-2.398 1.764 1.764 0 0 0-1.809.746 1.754 1.754 0 0 0-.297.977 1.777 1.777 0 0 0 1.756 1.757z"/><path fill="url(#bi)" d="M52.671 49.673a1.764 1.764 0 0 0 1.63-1.082 1.753 1.753 0 0 0-1.28-2.398 1.764 1.764 0 0 0-1.809.746 1.754 1.754 0 0 0-.297.977 1.777 1.777 0 0 0 1.756 1.757z"/><path fill="url(#bj)" d="M56.063 57.008a1.764 1.764 0 0 0 1.611-1.101 1.754 1.754 0 0 0-1.3-2.382 1.764 1.764 0 0 0-1.8.755 1.754 1.754 0 0 0 .23 2.224 1.756 1.756 0 0 0 1.26.504z"/><path fill="url(#bk)" d="M56.063 57.008a1.764 1.764 0 0 0 1.611-1.101 1.754 1.754 0 0 0-1.3-2.382 1.764 1.764 0 0 0-1.8.755 1.754 1.754 0 0 0 .23 2.224 1.756 1.756 0 0 0 1.26.504z"/><path fill="url(#bl)" d="M47.5 57.172a1.764 1.764 0 0 0 1.611-1.1 1.754 1.754 0 0 0-1.3-2.382 1.764 1.764 0 0 0-1.801.755 1.751 1.751 0 0 0-.293.974 1.746 1.746 0 0 0 1.783 1.753z"/><path fill="url(#bm)" d="M47.5 57.172a1.764 1.764 0 0 0 1.611-1.1 1.754 1.754 0 0 0-1.3-2.382 1.764 1.764 0 0 0-1.801.755 1.751 1.751 0 0 0-.293.974 1.746 1.746 0 0 0 1.783 1.753z"/><path fill="url(#bn)" d="M41.037 62.212a1.763 1.763 0 0 0 1.63-1.082 1.754 1.754 0 0 0-1.28-2.398 1.764 1.764 0 0 0-1.81.746 1.755 1.755 0 0 0-.297.977 1.777 1.777 0 0 0 1.757 1.757z"/><path fill="url(#bo)" d="M41.037 62.212a1.763 1.763 0 0 0 1.63-1.082 1.754 1.754 0 0 0-1.28-2.398 1.764 1.764 0 0 0-1.81.746 1.755 1.755 0 0 0-.297.977 1.777 1.777 0 0 0 1.757 1.757z"/><path fill="url(#bp)" d="M41.416 72.932a1.763 1.763 0 0 0-1.608 1.095 1.753 1.753 0 0 0 .385 1.904 1.762 1.762 0 0 0 3.006-1.22 1.777 1.777 0 0 0-1.783-1.779z"/><path fill="url(#bq)" d="M41.416 72.932a1.763 1.763 0 0 0-1.608 1.095 1.753 1.753 0 0 0 .385 1.904 1.762 1.762 0 0 0 3.006-1.22 1.777 1.777 0 0 0-1.783-1.779z"/><path fill="url(#br)" d="M49.974 86.69a1.764 1.764 0 0 0-1.628 1.077 1.753 1.753 0 0 0 .37 1.913 1.761 1.761 0 0 0 3.014-1.21 1.778 1.778 0 0 0-1.756-1.78z"/><path fill="url(#bs)" d="M49.974 86.69a1.764 1.764 0 0 0-1.628 1.077 1.753 1.753 0 0 0 .37 1.913 1.761 1.761 0 0 0 3.014-1.21 1.778 1.778 0 0 0-1.756-1.78z"/><path fill="url(#bt)" d="M45.36 83.621a1.763 1.763 0 0 0 1.631-1.083 1.754 1.754 0 0 0-1.283-2.397 1.764 1.764 0 0 0-1.809.75 1.754 1.754 0 0 0 .221 2.215c.33.329.775.514 1.24.515z"/><path fill="url(#bu)" d="M45.36 83.621a1.763 1.763 0 0 0 1.631-1.083 1.754 1.754 0 0 0-1.283-2.397 1.764 1.764 0 0 0-1.809.75 1.754 1.754 0 0 0 .221 2.215c.33.329.775.514 1.24.515z"/><path fill="url(#bv)" d="M52.386 77.305a1.763 1.763 0 0 0-1.627 1.084 1.755 1.755 0 0 0 1.283 2.396 1.764 1.764 0 0 0 1.808-.747c.193-.29.297-.629.297-.976a1.777 1.777 0 0 0-1.761-1.757z"/><path fill="url(#bw)" d="M52.386 77.305a1.763 1.763 0 0 0-1.627 1.084 1.755 1.755 0 0 0 1.283 2.396 1.764 1.764 0 0 0 1.808-.747c.193-.29.297-.629.297-.976a1.777 1.777 0 0 0-1.761-1.757z"/><path fill="url(#bx)" d="M47.251 72.545a1.755 1.755 0 0 0 1.102 1.607 1.765 1.765 0 0 0 1.911-.395 1.755 1.755 0 0 0-1.252-2.991 1.785 1.785 0 0 0-1.761 1.779z"/><path fill="url(#by)" d="M47.251 72.545a1.755 1.755 0 0 0 1.102 1.607 1.765 1.765 0 0 0 1.911-.395 1.755 1.755 0 0 0-1.252-2.991 1.785 1.785 0 0 0-1.761 1.779z"/><path fill="url(#bz)" d="M45.494 67.88a1.764 1.764 0 0 0 1.627-1.085 1.753 1.753 0 0 0-1.283-2.396 1.764 1.764 0 0 0-1.808.747 1.755 1.755 0 0 0 1.464 2.733z"/><path fill="url(#bA)" d="M45.494 67.88a1.764 1.764 0 0 0 1.627-1.085 1.753 1.753 0 0 0-1.283-2.396 1.764 1.764 0 0 0-1.808.747 1.755 1.755 0 0 0 1.464 2.733z"/><path fill="url(#bB)" d="M52.542 64.294a1.763 1.763 0 0 0 1.627-1.085 1.753 1.753 0 0 0-.382-1.915 1.762 1.762 0 0 0-3.006 1.243 1.777 1.777 0 0 0 1.761 1.757z"/><path fill="url(#bC)" d="M52.542 64.294a1.763 1.763 0 0 0 1.627-1.085 1.753 1.753 0 0 0-.382-1.915 1.762 1.762 0 0 0-3.006 1.243 1.777 1.777 0 0 0 1.761 1.757z"/><path fill="url(#bD)" d="M56.224 67.888a1.763 1.763 0 0 0-1.63 1.082 1.753 1.753 0 0 0 .38 1.917 1.762 1.762 0 0 0 3.007-1.247 1.75 1.75 0 0 0-1.757-1.752z"/><path fill="url(#bE)" d="M56.224 67.888a1.763 1.763 0 0 0-1.63 1.082 1.753 1.753 0 0 0 .38 1.917 1.762 1.762 0 0 0 3.007-1.247 1.75 1.75 0 0 0-1.757-1.752z"/><path fill="url(#bF)" d="M61.586 60.548a1.787 1.787 0 0 0-1.668 1.085 1.776 1.776 0 0 0 1.297 2.44 1.786 1.786 0 0 0 1.836-.77 1.777 1.777 0 0 0-1.465-2.755z"/><path fill="url(#bG)" d="M61.586 60.548a1.787 1.787 0 0 0-1.668 1.085 1.776 1.776 0 0 0 1.297 2.44 1.786 1.786 0 0 0 1.836-.77 1.777 1.777 0 0 0-1.465-2.755z"/><path fill="url(#bH)" d="M61.862 54.57a1.753 1.753 0 0 0 1.084 1.626 1.764 1.764 0 0 0 2.404-1.277 1.753 1.753 0 0 0-.748-1.805 1.763 1.763 0 0 0-.979-.297 1.785 1.785 0 0 0-1.76 1.753z"/><path fill="url(#bI)" d="M61.862 54.57a1.753 1.753 0 0 0 1.084 1.626 1.764 1.764 0 0 0 2.404-1.277 1.753 1.753 0 0 0-.748-1.805 1.763 1.763 0 0 0-.979-.297 1.785 1.785 0 0 0-1.76 1.753z"/><path fill="url(#bJ)" d="M70.297 55.922a1.758 1.758 0 0 0-1.626 1.08 1.748 1.748 0 0 0 .38 1.912 1.758 1.758 0 0 0 2.998-1.244 1.746 1.746 0 0 0-1.752-1.748z"/><path fill="url(#bK)" d="M70.297 55.922a1.758 1.758 0 0 0-1.626 1.08 1.748 1.748 0 0 0 .38 1.912 1.758 1.758 0 0 0 2.998-1.244 1.746 1.746 0 0 0-1.752-1.748z"/><path fill="url(#bL)" d="M76.595 53.556a1.777 1.777 0 0 0 1.087 1.665 1.787 1.787 0 0 0 1.955-.379 1.779 1.779 0 0 0-1.281-3.039 1.785 1.785 0 0 0-1.761 1.753z"/><path fill="url(#bM)" d="M76.595 53.556a1.777 1.777 0 0 0 1.087 1.665 1.787 1.787 0 0 0 1.955-.379 1.779 1.779 0 0 0-1.281-3.039 1.785 1.785 0 0 0-1.761 1.753z"/><path fill="url(#bN)" d="M83.83 48.578a1.763 1.763 0 0 0 1.625-1.08 1.754 1.754 0 0 0-1.268-2.397 1.764 1.764 0 0 0-1.81.728 1.754 1.754 0 0 0-.308.97 1.778 1.778 0 0 0 1.761 1.78z"/><path fill="url(#bO)" d="M83.83 48.578a1.763 1.763 0 0 0 1.625-1.08 1.754 1.754 0 0 0-1.268-2.397 1.764 1.764 0 0 0-1.81.728 1.754 1.754 0 0 0-.308.97 1.778 1.778 0 0 0 1.761 1.78z"/><path fill="url(#bP)" d="M76.363 46.372a1.763 1.763 0 0 0 1.627-1.086 1.754 1.754 0 0 0-1.286-2.395 1.765 1.765 0 0 0-1.807.751 1.755 1.755 0 0 0-.162 1.65 1.746 1.746 0 0 0 1.628 1.08z"/><path fill="url(#bQ)" d="M76.363 46.372a1.763 1.763 0 0 0 1.627-1.086 1.754 1.754 0 0 0-1.286-2.395 1.765 1.765 0 0 0-1.807.751 1.755 1.755 0 0 0-.162 1.65 1.746 1.746 0 0 0 1.628 1.08z"/><path fill="url(#bR)" d="M68.278 49.317a1.755 1.755 0 0 0 1.103 1.608 1.764 1.764 0 0 0 2.386-1.298 1.753 1.753 0 0 0-.756-1.797 1.764 1.764 0 0 0-2.608.808 1.75 1.75 0 0 0-.126.679z"/><path fill="url(#bS)" d="M68.278 49.317a1.755 1.755 0 0 0 1.103 1.608 1.764 1.764 0 0 0 2.386-1.298 1.753 1.753 0 0 0-.756-1.797 1.764 1.764 0 0 0-2.608.808 1.75 1.75 0 0 0-.126.679z"/><path fill="url(#bT)" d="M61.234 49.023a1.786 1.786 0 0 0 1.666-1.08 1.776 1.776 0 0 0-1.282-2.442 1.786 1.786 0 0 0-1.838.752 1.777 1.777 0 0 0 1.454 2.77z"/><path fill="url(#bU)" d="M61.234 49.023a1.786 1.786 0 0 0 1.666-1.08 1.776 1.776 0 0 0-1.282-2.442 1.786 1.786 0 0 0-1.838.752 1.777 1.777 0 0 0 1.454 2.77z"/><path fill="url(#bV)" d="M67.23 42.858a1.758 1.758 0 1 0 0-3.514c-.973 0-1.761.787-1.761 1.757 0 .97.788 1.757 1.76 1.757z"/><path fill="url(#bW)" d="M67.23 42.858a1.758 1.758 0 1 0 0-3.514c-.973 0-1.761.787-1.761 1.757 0 .97.788 1.757 1.76 1.757z"/><path fill="url(#bX)" d="M89.981 44.13c.067 0 .107-.062.174-.071-.638-.498-1.2-1.08-1.868-1.53a1.716 1.716 0 0 0 1.694 1.601z"/><path fill="url(#bY)" d="M89.981 44.13c.067 0 .107-.062.174-.071-.638-.498-1.2-1.08-1.868-1.53a1.716 1.716 0 0 0 1.694 1.601z"/><path fill="url(#bZ)" d="M94.64 49.966a1.696 1.696 0 0 0 1.016-.422c-.704-.89-1.373-1.78-2.162-2.616a1.704 1.704 0 0 0-.615 1.281 1.777 1.777 0 0 0 1.76 1.757z"/><path fill="url(#ca)" d="M94.64 49.966a1.696 1.696 0 0 0 1.016-.422c-.704-.89-1.373-1.78-2.162-2.616a1.704 1.704 0 0 0-.615 1.281 1.777 1.777 0 0 0 1.76 1.757z"/><path fill="url(#cb)" d="M87.989 55.17a1.785 1.785 0 0 0 1.666-1.079 1.776 1.776 0 0 0-1.282-2.443 1.788 1.788 0 0 0-1.838.752 1.777 1.777 0 0 0 1.454 2.77z"/><path fill="url(#cc)" d="M87.989 55.17a1.785 1.785 0 0 0 1.666-1.079 1.776 1.776 0 0 0-1.282-2.443 1.788 1.788 0 0 0-1.838.752 1.777 1.777 0 0 0 1.454 2.77z"/><path fill="url(#cd)" d="M98.504 133.383c.054 0 .09.057.143.057a1.67 1.67 0 0 0 1.337-.778 69.23 69.23 0 0 0 5.996-3.238 1.654 1.654 0 0 0 1.391.867 1.747 1.747 0 0 0 1.244-.512 1.74 1.74 0 0 0 .516-1.24 1.67 1.67 0 0 0-.338-.819 70.665 70.665 0 0 0 5.821-4.368c.088-.108.192-.202.308-.28a70.658 70.658 0 0 0 5.465-5.16c.291.267.666.425 1.061.445a1.746 1.746 0 0 0 1.626-1.081 1.74 1.74 0 0 0 .134-.672c0-.459-.182-.899-.508-1.223a66.645 66.645 0 0 0 4.182-5.311 1.664 1.664 0 0 0 1.203-1.526c0-.036-.036-.058-.036-.089a69.395 69.395 0 0 0 9.321-20.68c.221.164.478.27.749.312a1.778 1.778 0 0 0 1.761-1.757 1.745 1.745 0 0 0-1.689-1.726c.316-1.446.534-2.922.757-4.395a1.692 1.692 0 0 0 1.338-1.583 1.653 1.653 0 0 0-.892-1.397c.27-2.473.407-4.959.41-7.446 0-1.42-.129-2.803-.214-4.2a1.656 1.656 0 0 0 1.467 1.042 1.761 1.761 0 0 0 1.672-1.755 1.756 1.756 0 0 0-1.672-1.755 1.663 1.663 0 0 0-1.529 1.196 66.532 66.532 0 0 0-.892-6.85c.023-.102.116-.169.116-.28 0-.236-.165-.4-.249-.605a68.617 68.617 0 0 0-3.375-11.65l-2.492-5.702C121.274 16.036 97.479 0 69.918 0 31.364 0 0 31.302 0 69.774a69.516 69.516 0 0 0 6.96 30.284 69.663 69.663 0 0 0 19.465 24.25c.503.401 1.034.77 1.551 1.157a68.26 68.26 0 0 0 5.46 3.719 1.708 1.708 0 0 0-1.506 1.65 1.753 1.753 0 0 0 1.064 1.703 1.762 1.762 0 0 0 2.453-1.703c0-.223-.16-.378-.24-.574a69.672 69.672 0 0 0 11.41 5.218c1.022.364 2.029.751 3.072 1.067a69.51 69.51 0 0 0 14.18 2.696c.766.067 1.55.075 2.327.12 1.239.062 2.465.187 3.722.187.851 0 1.676-.098 2.518-.125-.035.143-.165.245-.165.401a1.759 1.759 0 0 0 3.035 1.299 1.762 1.762 0 0 0 .482-1.299c0-.218-.16-.365-.231-.561a69.364 69.364 0 0 0 22.947-5.88zM44.68 48.939a1.677 1.677 0 0 0 1.297-1.566 33.018 33.018 0 0 1 9.864-7.17 1.733 1.733 0 0 0 1.573 1.687 1.743 1.743 0 0 0 1.498-.612 1.733 1.733 0 0 0-.066-2.303 32.603 32.603 0 0 1 11.073-2.05c.998 0 1.943.208 2.924.297a1.777 1.777 0 0 0 1.76 1.78 1.696 1.696 0 0 0 1.619-1.42 32.82 32.82 0 0 1 12.066 4.947c.67.445 1.23 1.032 1.868 1.53a33.061 33.061 0 0 1 3.339 2.87c.789.813 1.458 1.73 2.162 2.615a33.27 33.27 0 0 1 2.777 4.128c.045.044.05.115.09.164l-.09-.164a1.753 1.753 0 0 0-2.896.779 1.745 1.745 0 0 0 .874 2.033 1.755 1.755 0 0 0 2.17-.45c.255-.313.393-.705.391-1.108 0-.117-.016-.234-.049-.347a31.567 31.567 0 0 1 3.165 8.327l.727 7.064a32.767 32.767 0 0 1-4.754 16.843 32.856 32.856 0 0 1-12.754 12.01 32.947 32.947 0 0 1-33.755-1.795c0-.098.112-.16.112-.263a1.777 1.777 0 0 0-1.761-1.779c-.21 0-.352.16-.54.227A32.67 32.67 0 0 1 40.3 83.935a32.602 32.602 0 0 1-3.297-14.077c.04 0 .062.04.102.04a1.76 1.76 0 0 0 1.647-1.075c.09-.215.136-.445.136-.677a1.715 1.715 0 0 0-1.538-1.668 32.435 32.435 0 0 1 7.329-17.54z"/><path fill="url(#ce)" d="M98.504 133.383c.054 0 .09.057.143.057a1.67 1.67 0 0 0 1.337-.778 69.23 69.23 0 0 0 5.996-3.238 1.654 1.654 0 0 0 1.391.867 1.747 1.747 0 0 0 1.244-.512 1.74 1.74 0 0 0 .516-1.24 1.67 1.67 0 0 0-.338-.819 70.665 70.665 0 0 0 5.821-4.368c.088-.108.192-.202.308-.28a70.658 70.658 0 0 0 5.465-5.16c.291.267.666.425 1.061.445a1.746 1.746 0 0 0 1.626-1.081 1.74 1.74 0 0 0 .134-.672c0-.459-.182-.899-.508-1.223a66.645 66.645 0 0 0 4.182-5.311 1.664 1.664 0 0 0 1.203-1.526c0-.036-.036-.058-.036-.089a69.395 69.395 0 0 0 9.321-20.68c.221.164.478.27.749.312a1.778 1.778 0 0 0 1.761-1.757 1.745 1.745 0 0 0-1.689-1.726c.316-1.446.534-2.922.757-4.395a1.692 1.692 0 0 0 1.338-1.583 1.653 1.653 0 0 0-.892-1.397c.27-2.473.407-4.959.41-7.446 0-1.42-.129-2.803-.214-4.2a1.656 1.656 0 0 0 1.467 1.042 1.761 1.761 0 0 0 1.672-1.755 1.756 1.756 0 0 0-1.672-1.755 1.663 1.663 0 0 0-1.529 1.196 66.532 66.532 0 0 0-.892-6.85c.023-.102.116-.169.116-.28 0-.236-.165-.4-.249-.605a68.617 68.617 0 0 0-3.375-11.65l-2.492-5.702C121.274 16.036 97.479 0 69.918 0 31.364 0 0 31.302 0 69.774a69.516 69.516 0 0 0 6.96 30.284 69.663 69.663 0 0 0 19.465 24.25c.503.401 1.034.77 1.551 1.157a68.26 68.26 0 0 0 5.46 3.719 1.708 1.708 0 0 0-1.506 1.65 1.753 1.753 0 0 0 1.064 1.703 1.762 1.762 0 0 0 2.453-1.703c0-.223-.16-.378-.24-.574a69.672 69.672 0 0 0 11.41 5.218c1.022.364 2.029.751 3.072 1.067a69.51 69.51 0 0 0 14.18 2.696c.766.067 1.55.075 2.327.12 1.239.062 2.465.187 3.722.187.851 0 1.676-.098 2.518-.125-.035.143-.165.245-.165.401a1.759 1.759 0 0 0 3.035 1.299 1.762 1.762 0 0 0 .482-1.299c0-.218-.16-.365-.231-.561a69.364 69.364 0 0 0 22.947-5.88zM44.68 48.939a1.677 1.677 0 0 0 1.297-1.566 33.018 33.018 0 0 1 9.864-7.17 1.733 1.733 0 0 0 1.573 1.687 1.743 1.743 0 0 0 1.498-.612 1.733 1.733 0 0 0-.066-2.303 32.603 32.603 0 0 1 11.073-2.05c.998 0 1.943.208 2.924.297a1.777 1.777 0 0 0 1.76 1.78 1.696 1.696 0 0 0 1.619-1.42 32.82 32.82 0 0 1 12.066 4.947c.67.445 1.23 1.032 1.868 1.53a33.061 33.061 0 0 1 3.339 2.87c.789.813 1.458 1.73 2.162 2.615a33.27 33.27 0 0 1 2.777 4.128c.045.044.05.115.09.164l-.09-.164a1.753 1.753 0 0 0-2.896.779 1.745 1.745 0 0 0 .874 2.033 1.755 1.755 0 0 0 2.17-.45c.255-.313.393-.705.391-1.108 0-.117-.016-.234-.049-.347a31.567 31.567 0 0 1 3.165 8.327l.727 7.064a32.767 32.767 0 0 1-4.754 16.843 32.856 32.856 0 0 1-12.754 12.01 32.947 32.947 0 0 1-33.755-1.795c0-.098.112-.16.112-.263a1.777 1.777 0 0 0-1.761-1.779c-.21 0-.352.16-.54.227A32.67 32.67 0 0 1 40.3 83.935a32.602 32.602 0 0 1-3.297-14.077c.04 0 .062.04.102.04a1.76 1.76 0 0 0 1.647-1.075c.09-.215.136-.445.136-.677a1.715 1.715 0 0 0-1.538-1.668 32.435 32.435 0 0 1 7.329-17.54z"/></g><defs><linearGradient id="b" x1="27.201" x2="27.201" y1="124.309" y2="125.492" gradientUnits="userSpaceOnUse"><stop stop-color="#FFFADE"/><stop offset="1" stop-color="#FFFADE" stop-opacity="0"/></linearGradient><linearGradient id="c" x1="27.201" x2="27.201" y1="124.309" y2="125.492" gradientUnits="userSpaceOnUse"><stop stop-color="#FFFADE"/><stop offset="1" stop-color="#FFFADE" stop-opacity="0"/></linearGradient><linearGradient id="d" x1="39.869" x2="39.869" y1="136.051" y2="139.61" gradientUnits="userSpaceOnUse"><stop stop-color="#FFFADE"/><stop offset="1" stop-color="#FFFADE" stop-opacity="0"/></linearGradient><linearGradient id="e" x1="39.869" x2="39.869" y1="136.051" y2="139.61" gradientUnits="userSpaceOnUse"><stop stop-color="#FFFADE"/><stop offset="1" stop-color="#FFFADE" stop-opacity="0"/></linearGradient><linearGradient id="f" x1="48.165" x2="48.165" y1="135.478" y2="137.257" gradientUnits="userSpaceOnUse"><stop stop-color="#FFFADE"/><stop offset="1" stop-color="#FFFADE" stop-opacity="0"/></linearGradient><linearGradient id="g" x1="48.165" x2="48.165" y1="135.478" y2="137.257" gradientUnits="userSpaceOnUse"><stop stop-color="#FFFADE"/><stop offset="1" stop-color="#FFFADE" stop-opacity="0"/></linearGradient><linearGradient id="h" x1="47.357" x2="47.357" y1="142.097" y2="145.611" gradientUnits="userSpaceOnUse"><stop stop-color="#FFFADE"/><stop offset="1" stop-color="#FFFADE" stop-opacity="0"/></linearGradient><linearGradient id="i" x1="47.357" x2="47.357" y1="142.097" y2="145.611" gradientUnits="userSpaceOnUse"><stop stop-color="#FFFADE"/><stop offset="1" stop-color="#FFFADE" stop-opacity="0"/></linearGradient><linearGradient id="j" x1="54.762" x2="54.762" y1="148.11" y2="151.536" gradientUnits="userSpaceOnUse"><stop stop-color="#FFFADE"/><stop offset="1" stop-color="#FFFADE" stop-opacity="0"/></linearGradient><linearGradient id="k" x1="54.762" x2="54.762" y1="148.11" y2="151.536" gradientUnits="userSpaceOnUse"><stop stop-color="#FFFADE"/><stop offset="1" stop-color="#FFFADE" stop-opacity="0"/></linearGradient><linearGradient id="l" x1="63.971" x2="63.971" y1="151.82" y2="155.307" gradientUnits="userSpaceOnUse"><stop stop-color="#FFFADE"/><stop offset="1" stop-color="#FFFADE" stop-opacity="0"/></linearGradient><linearGradient id="m" x1="63.971" x2="63.971" y1="151.82" y2="155.307" gradientUnits="userSpaceOnUse"><stop stop-color="#FFFADE"/><stop offset="1" stop-color="#FFFADE" stop-opacity="0"/></linearGradient><linearGradient id="n" x1="72.864" x2="72.864" y1="153.431" y2="156.945" gradientUnits="userSpaceOnUse"><stop stop-color="#FFFADE"/><stop offset="1" stop-color="#FFFADE" stop-opacity="0"/></linearGradient><linearGradient id="o" x1="72.864" x2="72.864" y1="153.431" y2="156.945" gradientUnits="userSpaceOnUse"><stop stop-color="#FFFADE"/><stop offset="1" stop-color="#FFFADE" stop-opacity="0"/></linearGradient><linearGradient id="p" x1="78.133" x2="78.133" y1="146.594" y2="150.108" gradientUnits="userSpaceOnUse"><stop stop-color="#FFFADE"/><stop offset="1" stop-color="#FFFADE" stop-opacity="0"/></linearGradient><linearGradient id="q" x1="78.133" x2="78.133" y1="146.594" y2="150.108" gradientUnits="userSpaceOnUse"><stop stop-color="#FFFADE"/><stop offset="1" stop-color="#FFFADE" stop-opacity="0"/></linearGradient><linearGradient id="r" x1="86.393" x2="86.393" y1="148.159" y2="151.718" gradientUnits="userSpaceOnUse"><stop stop-color="#FFFADE"/><stop offset="1" stop-color="#FFFADE" stop-opacity="0"/></linearGradient><linearGradient id="s" x1="86.393" x2="86.393" y1="148.159" y2="151.718" gradientUnits="userSpaceOnUse"><stop stop-color="#FFFADE"/><stop offset="1" stop-color="#FFFADE" stop-opacity="0"/></linearGradient><linearGradient id="t" x1="81.664" x2="81.664" y1="155.076" y2="158.59" gradientUnits="userSpaceOnUse"><stop stop-color="#FFFADE"/><stop offset="1" stop-color="#FFFADE" stop-opacity="0"/></linearGradient><linearGradient id="u" x1="81.664" x2="81.664" y1="155.076" y2="158.59" gradientUnits="userSpaceOnUse"><stop stop-color="#FFFADE"/><stop offset="1" stop-color="#FFFADE" stop-opacity="0"/></linearGradient><linearGradient id="v" x1="91.212" x2="91.212" y1="155.73" y2="159.244" gradientUnits="userSpaceOnUse"><stop stop-color="#FFFADE"/><stop offset="1" stop-color="#FFFADE" stop-opacity="0"/></linearGradient><linearGradient id="w" x1="91.212" x2="91.212" y1="155.73" y2="159.244" gradientUnits="userSpaceOnUse"><stop stop-color="#FFFADE"/><stop offset="1" stop-color="#FFFADE" stop-opacity="0"/></linearGradient><linearGradient id="x" x1="100.341" x2="100.341" y1="153.435" y2="156.949" gradientUnits="userSpaceOnUse"><stop stop-color="#FFFADE"/><stop offset="1" stop-color="#FFFADE" stop-opacity="0"/></linearGradient><linearGradient id="y" x1="100.341" x2="100.341" y1="153.435" y2="156.949" gradientUnits="userSpaceOnUse"><stop stop-color="#FFFADE"/><stop offset="1" stop-color="#FFFADE" stop-opacity="0"/></linearGradient><linearGradient id="z" x1="94.996" x2="94.996" y1="147.336" y2="150.851" gradientUnits="userSpaceOnUse"><stop stop-color="#FFFADE"/><stop offset="1" stop-color="#FFFADE" stop-opacity="0"/></linearGradient><linearGradient id="A" x1="94.996" x2="94.996" y1="147.336" y2="150.851" gradientUnits="userSpaceOnUse"><stop stop-color="#FFFADE"/><stop offset="1" stop-color="#FFFADE" stop-opacity="0"/></linearGradient><linearGradient id="B" x1="103.274" x2="103.274" y1="144.667" y2="148.182" gradientUnits="userSpaceOnUse"><stop stop-color="#FFFADE"/><stop offset="1" stop-color="#FFFADE" stop-opacity="0"/></linearGradient><linearGradient id="C" x1="103.274" x2="103.274" y1="144.667" y2="148.182" gradientUnits="userSpaceOnUse"><stop stop-color="#FFFADE"/><stop offset="1" stop-color="#FFFADE" stop-opacity="0"/></linearGradient><linearGradient id="D" x1="108.926" x2="108.926" y1="151.335" y2="154.85" gradientUnits="userSpaceOnUse"><stop stop-color="#FFFADE"/><stop offset="1" stop-color="#FFFADE" stop-opacity="0"/></linearGradient><linearGradient id="E" x1="108.926" x2="108.926" y1="151.335" y2="154.85" gradientUnits="userSpaceOnUse"><stop stop-color="#FFFADE"/><stop offset="1" stop-color="#FFFADE" stop-opacity="0"/></linearGradient><linearGradient id="F" x1="116.794" x2="116.794" y1="147.728" y2="151.242" gradientUnits="userSpaceOnUse"><stop stop-color="#FFFADE"/><stop offset="1" stop-color="#FFFADE" stop-opacity="0"/></linearGradient><linearGradient id="G" x1="116.794" x2="116.794" y1="147.728" y2="151.242" gradientUnits="userSpaceOnUse"><stop stop-color="#FFFADE"/><stop offset="1" stop-color="#FFFADE" stop-opacity="0"/></linearGradient><linearGradient id="H" x1="111.262" x2="111.262" y1="141.576" y2="145.09" gradientUnits="userSpaceOnUse"><stop stop-color="#FFFADE"/><stop offset="1" stop-color="#FFFADE" stop-opacity="0"/></linearGradient><linearGradient id="I" x1="111.262" x2="111.262" y1="141.576" y2="145.09" gradientUnits="userSpaceOnUse"><stop stop-color="#FFFADE"/><stop offset="1" stop-color="#FFFADE" stop-opacity="0"/></linearGradient><linearGradient id="J" x1="105.534" x2="105.534" y1="135.478" y2="139.036" gradientUnits="userSpaceOnUse"><stop stop-color="#FFFADE"/><stop offset="1" stop-color="#FFFADE" stop-opacity="0"/></linearGradient><linearGradient id="K" x1="105.534" x2="105.534" y1="135.478" y2="139.036" gradientUnits="userSpaceOnUse"><stop stop-color="#FFFADE"/><stop offset="1" stop-color="#FFFADE" stop-opacity="0"/></linearGradient><linearGradient id="L" x1="97.443" x2="97.443" y1="138.24" y2="141.754" gradientUnits="userSpaceOnUse"><stop stop-color="#FFFADE"/><stop offset="1" stop-color="#FFFADE" stop-opacity="0"/></linearGradient><linearGradient id="M" x1="97.443" x2="97.443" y1="138.24" y2="141.754" gradientUnits="userSpaceOnUse"><stop stop-color="#FFFADE"/><stop offset="1" stop-color="#FFFADE" stop-opacity="0"/></linearGradient><linearGradient id="N" x1="90.004" x2="90.004" y1="140.629" y2="144.143" gradientUnits="userSpaceOnUse"><stop stop-color="#FFFADE"/><stop offset="1" stop-color="#FFFADE" stop-opacity="0"/></linearGradient><linearGradient id="O" x1="90.004" x2="90.004" y1="140.629" y2="144.143" gradientUnits="userSpaceOnUse"><stop stop-color="#FFFADE"/><stop offset="1" stop-color="#FFFADE" stop-opacity="0"/></linearGradient><linearGradient id="P" x1="82.461" x2="82.461" y1="139.41" y2="142.924" gradientUnits="userSpaceOnUse"><stop stop-color="#FFFADE"/><stop offset="1" stop-color="#FFFADE" stop-opacity="0"/></linearGradient><linearGradient id="Q" x1="82.461" x2="82.461" y1="139.41" y2="142.924" gradientUnits="userSpaceOnUse"><stop stop-color="#FFFADE"/><stop offset="1" stop-color="#FFFADE" stop-opacity="0"/></linearGradient><linearGradient id="R" x1="65.033" x2="65.033" y1="139.236" y2="139.801" gradientUnits="userSpaceOnUse"><stop stop-color="#FFFADE"/><stop offset="1" stop-color="#FFFADE" stop-opacity="0"/></linearGradient><linearGradient id="S" x1="65.033" x2="65.033" y1="139.236" y2="139.801" gradientUnits="userSpaceOnUse"><stop stop-color="#FFFADE"/><stop offset="1" stop-color="#FFFADE" stop-opacity="0"/></linearGradient><linearGradient id="T" x1="69.842" x2="69.842" y1="145.095" y2="148.609" gradientUnits="userSpaceOnUse"><stop stop-color="#FFFADE"/><stop offset="1" stop-color="#FFFADE" stop-opacity="0"/></linearGradient><linearGradient id="U" x1="69.842" x2="69.842" y1="145.095" y2="148.609" gradientUnits="userSpaceOnUse"><stop stop-color="#FFFADE"/><stop offset="1" stop-color="#FFFADE" stop-opacity="0"/></linearGradient><linearGradient id="V" x1="62.055" x2="62.055" y1="143.831" y2="147.346" gradientUnits="userSpaceOnUse"><stop stop-color="#FFFADE"/><stop offset="1" stop-color="#FFFADE" stop-opacity="0"/></linearGradient><linearGradient id="W" x1="62.055" x2="62.055" y1="143.831" y2="147.346" gradientUnits="userSpaceOnUse"><stop stop-color="#FFFADE"/><stop offset="1" stop-color="#FFFADE" stop-opacity="0"/></linearGradient><linearGradient id="X" x1="55.617" x2="55.617" y1="139.001" y2="142.515" gradientUnits="userSpaceOnUse"><stop stop-color="#FFFADE"/><stop offset="1" stop-color="#FFFADE" stop-opacity="0"/></linearGradient><linearGradient id="Y" x1="55.617" x2="55.617" y1="139.001" y2="142.515" gradientUnits="userSpaceOnUse"><stop stop-color="#FFFADE"/><stop offset="1" stop-color="#FFFADE" stop-opacity="0"/></linearGradient><linearGradient id="Z" x1="138.053" x2="138.053" y1="92.939" y2="96.454" gradientUnits="userSpaceOnUse"><stop stop-color="#FFFADE"/><stop offset="1" stop-color="#FFFADE" stop-opacity="0"/></linearGradient><linearGradient id="aa" x1="138.053" x2="138.053" y1="92.939" y2="96.454" gradientUnits="userSpaceOnUse"><stop stop-color="#FFFADE"/><stop offset="1" stop-color="#FFFADE" stop-opacity="0"/></linearGradient><linearGradient id="ab" x1="137.963" x2="137.963" y1="100.72" y2="104.234" gradientUnits="userSpaceOnUse"><stop stop-color="#FFFADE"/><stop offset="1" stop-color="#FFFADE" stop-opacity="0"/></linearGradient><linearGradient id="ac" x1="137.963" x2="137.963" y1="100.72" y2="104.234" gradientUnits="userSpaceOnUse"><stop stop-color="#FFFADE"/><stop offset="1" stop-color="#FFFADE" stop-opacity="0"/></linearGradient><linearGradient id="ad" x1="134.571" x2="134.571" y1="107.468" y2="110.982" gradientUnits="userSpaceOnUse"><stop stop-color="#FFFADE"/><stop offset="1" stop-color="#FFFADE" stop-opacity="0"/></linearGradient><linearGradient id="ae" x1="134.571" x2="134.571" y1="107.468" y2="110.982" gradientUnits="userSpaceOnUse"><stop stop-color="#FFFADE"/><stop offset="1" stop-color="#FFFADE" stop-opacity="0"/></linearGradient><linearGradient id="af" x1="130.355" x2="130.355" y1="114.638" y2="118.152" gradientUnits="userSpaceOnUse"><stop stop-color="#FFFADE"/><stop offset="1" stop-color="#FFFADE" stop-opacity="0"/></linearGradient><linearGradient id="ag" x1="130.355" x2="130.355" y1="114.638" y2="118.152" gradientUnits="userSpaceOnUse"><stop stop-color="#FFFADE"/><stop offset="1" stop-color="#FFFADE" stop-opacity="0"/></linearGradient><linearGradient id="ah" x1="125.527" x2="125.527" y1="122.16" y2="125.673" gradientUnits="userSpaceOnUse"><stop stop-color="#FFFADE"/><stop offset="1" stop-color="#FFFADE" stop-opacity="0"/></linearGradient><linearGradient id="ai" x1="125.527" x2="125.527" y1="122.16" y2="125.673" gradientUnits="userSpaceOnUse"><stop stop-color="#FFFADE"/><stop offset="1" stop-color="#FFFADE" stop-opacity="0"/></linearGradient><linearGradient id="aj" x1="115.951" x2="115.951" y1="122.653" y2="126.167" gradientUnits="userSpaceOnUse"><stop stop-color="#FFFADE"/><stop offset="1" stop-color="#FFFADE" stop-opacity="0"/></linearGradient><linearGradient id="ak" x1="115.951" x2="115.951" y1="122.653" y2="126.167" gradientUnits="userSpaceOnUse"><stop stop-color="#FFFADE"/><stop offset="1" stop-color="#FFFADE" stop-opacity="0"/></linearGradient><linearGradient id="al" x1="113.825" x2="113.825" y1="132.093" y2="135.607" gradientUnits="userSpaceOnUse"><stop stop-color="#FFFADE"/><stop offset="1" stop-color="#FFFADE" stop-opacity="0"/></linearGradient><linearGradient id="am" x1="113.825" x2="113.825" y1="132.093" y2="135.607" gradientUnits="userSpaceOnUse"><stop stop-color="#FFFADE"/><stop offset="1" stop-color="#FFFADE" stop-opacity="0"/></linearGradient><linearGradient id="an" x1="122.188" x2="122.188" y1="130.025" y2="133.583" gradientUnits="userSpaceOnUse"><stop stop-color="#FFFADE"/><stop offset="1" stop-color="#FFFADE" stop-opacity="0"/></linearGradient><linearGradient id="ao" x1="122.188" x2="122.188" y1="130.025" y2="133.583" gradientUnits="userSpaceOnUse"><stop stop-color="#FFFADE"/><stop offset="1" stop-color="#FFFADE" stop-opacity="0"/></linearGradient><linearGradient id="ap" x1="131.005" x2="131.005" y1="128.792" y2="132.306" gradientUnits="userSpaceOnUse"><stop stop-color="#FFFADE"/><stop offset="1" stop-color="#FFFADE" stop-opacity="0"/></linearGradient><linearGradient id="aq" x1="131.005" x2="131.005" y1="128.792" y2="132.306" gradientUnits="userSpaceOnUse"><stop stop-color="#FFFADE"/><stop offset="1" stop-color="#FFFADE" stop-opacity="0"/></linearGradient><linearGradient id="ar" x1="119.411" x2="119.411" y1="138.507" y2="142.021" gradientUnits="userSpaceOnUse"><stop stop-color="#FFFADE"/><stop offset="1" stop-color="#FFFADE" stop-opacity="0"/></linearGradient><linearGradient id="as" x1="119.411" x2="119.411" y1="138.507" y2="142.021" gradientUnits="userSpaceOnUse"><stop stop-color="#FFFADE"/><stop offset="1" stop-color="#FFFADE" stop-opacity="0"/></linearGradient><linearGradient id="at" x1="124.84" x2="124.84" y1="144.57" y2="148.013" gradientUnits="userSpaceOnUse"><stop stop-color="#FFFADE"/><stop offset="1" stop-color="#FFFADE" stop-opacity="0"/></linearGradient><linearGradient id="au" x1="124.84" x2="124.84" y1="144.57" y2="148.013" gradientUnits="userSpaceOnUse"><stop stop-color="#FFFADE"/><stop offset="1" stop-color="#FFFADE" stop-opacity="0"/></linearGradient><linearGradient id="av" x1="128.513" x2="128.513" y1="137.354" y2="140.869" gradientUnits="userSpaceOnUse"><stop stop-color="#FFFADE"/><stop offset="1" stop-color="#FFFADE" stop-opacity="0"/></linearGradient><linearGradient id="aw" x1="128.513" x2="128.513" y1="137.354" y2="140.869" gradientUnits="userSpaceOnUse"><stop stop-color="#FFFADE"/><stop offset="1" stop-color="#FFFADE" stop-opacity="0"/></linearGradient><linearGradient id="ax" x1="136.568" x2="136.568" y1="135.086" y2="138.485" gradientUnits="userSpaceOnUse"><stop stop-color="#FFFADE"/><stop offset="1" stop-color="#FFFADE" stop-opacity="0"/></linearGradient><linearGradient id="ay" x1="136.568" x2="136.568" y1="135.086" y2="138.485" gradientUnits="userSpaceOnUse"><stop stop-color="#FFFADE"/><stop offset="1" stop-color="#FFFADE" stop-opacity="0"/></linearGradient><linearGradient id="az" x1="140.179" x2="140.179" y1="127.355" y2="130.913" gradientUnits="userSpaceOnUse"><stop stop-color="#FFFADE"/><stop offset="1" stop-color="#FFFADE" stop-opacity="0"/></linearGradient><linearGradient id="aA" x1="140.179" x2="140.179" y1="127.355" y2="130.913" gradientUnits="userSpaceOnUse"><stop stop-color="#FFFADE"/><stop offset="1" stop-color="#FFFADE" stop-opacity="0"/></linearGradient><linearGradient id="aB" x1="135.208" x2="135.208" y1="121.102" y2="124.616" gradientUnits="userSpaceOnUse"><stop stop-color="#FFFADE"/><stop offset="1" stop-color="#FFFADE" stop-opacity="0"/></linearGradient><linearGradient id="aC" x1="135.208" x2="135.208" y1="121.102" y2="124.616" gradientUnits="userSpaceOnUse"><stop stop-color="#FFFADE"/><stop offset="1" stop-color="#FFFADE" stop-opacity="0"/></linearGradient><linearGradient id="aD" x1="140.134" x2="140.134" y1="114.14" y2="117.654" gradientUnits="userSpaceOnUse"><stop stop-color="#FFFADE"/><stop offset="1" stop-color="#FFFADE" stop-opacity="0"/></linearGradient><linearGradient id="aE" x1="140.134" x2="140.134" y1="114.14" y2="117.654" gradientUnits="userSpaceOnUse"><stop stop-color="#FFFADE"/><stop offset="1" stop-color="#FFFADE" stop-opacity="0"/></linearGradient><linearGradient id="aF" x1="145.698" x2="145.698" y1="120.803" y2="124.29" gradientUnits="userSpaceOnUse"><stop stop-color="#FFFADE"/><stop offset="1" stop-color="#FFFADE" stop-opacity="0"/></linearGradient><linearGradient id="aG" x1="145.698" x2="145.698" y1="120.803" y2="124.29" gradientUnits="userSpaceOnUse"><stop stop-color="#FFFADE"/><stop offset="1" stop-color="#FFFADE" stop-opacity="0"/></linearGradient><linearGradient id="aH" x1="149.379" x2="149.379" y1="112.365" y2="115.879" gradientUnits="userSpaceOnUse"><stop stop-color="#FFFADE"/><stop offset="1" stop-color="#FFFADE" stop-opacity="0"/></linearGradient><linearGradient id="aI" x1="149.379" x2="149.379" y1="112.365" y2="115.879" gradientUnits="userSpaceOnUse"><stop stop-color="#FFFADE"/><stop offset="1" stop-color="#FFFADE" stop-opacity="0"/></linearGradient><linearGradient id="aJ" x1="143.9" x2="143.9" y1="106.293" y2="109.807" gradientUnits="userSpaceOnUse"><stop stop-color="#FFFADE"/><stop offset="1" stop-color="#FFFADE" stop-opacity="0"/></linearGradient><linearGradient id="aK" x1="143.9" x2="143.9" y1="106.293" y2="109.807" gradientUnits="userSpaceOnUse"><stop stop-color="#FFFADE"/><stop offset="1" stop-color="#FFFADE" stop-opacity="0"/></linearGradient><linearGradient id="aL" x1="152.317" x2="152.317" y1="103.22" y2="106.734" gradientUnits="userSpaceOnUse"><stop stop-color="#FFFADE"/><stop offset="1" stop-color="#FFFADE" stop-opacity="0"/></linearGradient><linearGradient id="aM" x1="152.317" x2="152.317" y1="103.22" y2="106.734" gradientUnits="userSpaceOnUse"><stop stop-color="#FFFADE"/><stop offset="1" stop-color="#FFFADE" stop-opacity="0"/></linearGradient><linearGradient id="aN" x1="145.8" x2="145.8" y1="97.539" y2="101.097" gradientUnits="userSpaceOnUse"><stop stop-color="#FFFADE"/><stop offset="1" stop-color="#FFFADE" stop-opacity="0"/></linearGradient><linearGradient id="aO" x1="145.8" x2="145.8" y1="97.539" y2="101.097" gradientUnits="userSpaceOnUse"><stop stop-color="#FFFADE"/><stop offset="1" stop-color="#FFFADE" stop-opacity="0"/></linearGradient><linearGradient id="aP" x1="153.369" x2="153.369" y1="93.66" y2="97.174" gradientUnits="userSpaceOnUse"><stop stop-color="#FFFADE"/><stop offset="1" stop-color="#FFFADE" stop-opacity="0"/></linearGradient><linearGradient id="aQ" x1="153.369" x2="153.369" y1="93.66" y2="97.174" gradientUnits="userSpaceOnUse"><stop stop-color="#FFFADE"/><stop offset="1" stop-color="#FFFADE" stop-opacity="0"/></linearGradient><linearGradient id="aR" x1="154.1" x2="154.1" y1="84.07" y2="87.576" gradientUnits="userSpaceOnUse"><stop stop-color="#FFFADE"/><stop offset="1" stop-color="#FFFADE" stop-opacity="0"/></linearGradient><linearGradient id="aS" x1="154.1" x2="154.1" y1="84.07" y2="87.576" gradientUnits="userSpaceOnUse"><stop stop-color="#FFFADE"/><stop offset="1" stop-color="#FFFADE" stop-opacity="0"/></linearGradient><linearGradient id="aT" x1="152.664" x2="152.664" y1="74.24" y2="77.745" gradientUnits="userSpaceOnUse"><stop stop-color="#FFFADE"/><stop offset="1" stop-color="#FFFADE" stop-opacity="0"/></linearGradient><linearGradient id="aU" x1="152.664" x2="152.664" y1="74.24" y2="77.745" gradientUnits="userSpaceOnUse"><stop stop-color="#FFFADE"/><stop offset="1" stop-color="#FFFADE" stop-opacity="0"/></linearGradient><linearGradient id="aV" x1="146.295" x2="146.295" y1="80.067" y2="83.581" gradientUnits="userSpaceOnUse"><stop stop-color="#FFFADE"/><stop offset="1" stop-color="#FFFADE" stop-opacity="0"/></linearGradient><linearGradient id="aW" x1="146.295" x2="146.295" y1="80.067" y2="83.581" gradientUnits="userSpaceOnUse"><stop stop-color="#FFFADE"/><stop offset="1" stop-color="#FFFADE" stop-opacity="0"/></linearGradient><linearGradient id="aX" x1="146.148" x2="146.148" y1="88.781" y2="92.295" gradientUnits="userSpaceOnUse"><stop stop-color="#FFFADE"/><stop offset="1" stop-color="#FFFADE" stop-opacity="0"/></linearGradient><linearGradient id="aY" x1="146.148" x2="146.148" y1="88.781" y2="92.295" gradientUnits="userSpaceOnUse"><stop stop-color="#FFFADE"/><stop offset="1" stop-color="#FFFADE" stop-opacity="0"/></linearGradient><linearGradient id="aZ" x1="144.561" x2="144.561" y1="71.033" y2="74.547" gradientUnits="userSpaceOnUse"><stop stop-color="#FFFADE"/><stop offset="1" stop-color="#FFFADE" stop-opacity="0"/></linearGradient><linearGradient id="ba" x1="144.561" x2="144.561" y1="71.033" y2="74.547" gradientUnits="userSpaceOnUse"><stop stop-color="#FFFADE"/><stop offset="1" stop-color="#FFFADE" stop-opacity="0"/></linearGradient><linearGradient id="bb" x1="150.07" x2="150.07" y1="64.614" y2="68.173" gradientUnits="userSpaceOnUse"><stop stop-color="#FFFADE"/><stop offset="1" stop-color="#FFFADE" stop-opacity="0"/></linearGradient><linearGradient id="bc" x1="150.07" x2="150.07" y1="64.614" y2="68.173" gradientUnits="userSpaceOnUse"><stop stop-color="#FFFADE"/><stop offset="1" stop-color="#FFFADE" stop-opacity="0"/></linearGradient><linearGradient id="bd" x1="146.178" x2="146.178" y1="56.007" y2="59.512" gradientUnits="userSpaceOnUse"><stop stop-color="#FFFADE"/><stop offset="1" stop-color="#FFFADE" stop-opacity="0"/></linearGradient><linearGradient id="be" x1="146.178" x2="146.178" y1="56.007" y2="59.512" gradientUnits="userSpaceOnUse"><stop stop-color="#FFFADE"/><stop offset="1" stop-color="#FFFADE" stop-opacity="0"/></linearGradient><linearGradient id="bf" x1="141.338" x2="141.338" y1="48.018" y2="51.505" gradientUnits="userSpaceOnUse"><stop stop-color="#FFFADE"/><stop offset="1" stop-color="#FFFADE" stop-opacity="0"/></linearGradient><linearGradient id="bg" x1="141.338" x2="141.338" y1="48.018" y2="51.505" gradientUnits="userSpaceOnUse"><stop stop-color="#FFFADE"/><stop offset="1" stop-color="#FFFADE" stop-opacity="0"/></linearGradient><linearGradient id="bh" x1="52.676" x2="52.676" y1="46.159" y2="49.673" gradientUnits="userSpaceOnUse"><stop stop-color="#FFFADE"/><stop offset="1" stop-color="#FFFADE" stop-opacity="0"/></linearGradient><linearGradient id="bi" x1="52.676" x2="52.676" y1="46.159" y2="49.673" gradientUnits="userSpaceOnUse"><stop stop-color="#FFFADE"/><stop offset="1" stop-color="#FFFADE" stop-opacity="0"/></linearGradient><linearGradient id="bj" x1="56.041" x2="56.041" y1="53.494" y2="57.008" gradientUnits="userSpaceOnUse"><stop stop-color="#FFFADE"/><stop offset="1" stop-color="#FFFADE" stop-opacity="0"/></linearGradient><linearGradient id="bk" x1="56.041" x2="56.041" y1="53.494" y2="57.008" gradientUnits="userSpaceOnUse"><stop stop-color="#FFFADE"/><stop offset="1" stop-color="#FFFADE" stop-opacity="0"/></linearGradient><linearGradient id="bl" x1="47.478" x2="47.478" y1="53.658" y2="57.172" gradientUnits="userSpaceOnUse"><stop stop-color="#FFFADE"/><stop offset="1" stop-color="#FFFADE" stop-opacity="0"/></linearGradient><linearGradient id="bm" x1="47.478" x2="47.478" y1="53.658" y2="57.172" gradientUnits="userSpaceOnUse"><stop stop-color="#FFFADE"/><stop offset="1" stop-color="#FFFADE" stop-opacity="0"/></linearGradient><linearGradient id="bn" x1="41.041" x2="41.041" y1="58.698" y2="62.212" gradientUnits="userSpaceOnUse"><stop stop-color="#FFFADE"/><stop offset="1" stop-color="#FFFADE" stop-opacity="0"/></linearGradient><linearGradient id="bo" x1="41.041" x2="41.041" y1="58.698" y2="62.212" gradientUnits="userSpaceOnUse"><stop stop-color="#FFFADE"/><stop offset="1" stop-color="#FFFADE" stop-opacity="0"/></linearGradient><linearGradient id="bp" x1="41.438" x2="41.438" y1="72.932" y2="76.446" gradientUnits="userSpaceOnUse"><stop stop-color="#FFFADE"/><stop offset="1" stop-color="#FFFADE" stop-opacity="0"/></linearGradient><linearGradient id="bq" x1="41.438" x2="41.438" y1="72.932" y2="76.446" gradientUnits="userSpaceOnUse"><stop stop-color="#FFFADE"/><stop offset="1" stop-color="#FFFADE" stop-opacity="0"/></linearGradient><linearGradient id="br" x1="49.97" x2="49.97" y1="86.69" y2="90.204" gradientUnits="userSpaceOnUse"><stop stop-color="#FFFADE"/><stop offset="1" stop-color="#FFFADE" stop-opacity="0"/></linearGradient><linearGradient id="bs" x1="49.97" x2="49.97" y1="86.69" y2="90.204" gradientUnits="userSpaceOnUse"><stop stop-color="#FFFADE"/><stop offset="1" stop-color="#FFFADE" stop-opacity="0"/></linearGradient><linearGradient id="bt" x1="45.365" x2="45.365" y1="80.107" y2="83.621" gradientUnits="userSpaceOnUse"><stop stop-color="#FFFADE"/><stop offset="1" stop-color="#FFFADE" stop-opacity="0"/></linearGradient><linearGradient id="bu" x1="45.365" x2="45.365" y1="80.107" y2="83.621" gradientUnits="userSpaceOnUse"><stop stop-color="#FFFADE"/><stop offset="1" stop-color="#FFFADE" stop-opacity="0"/></linearGradient><linearGradient id="bv" x1="52.386" x2="52.386" y1="77.305" y2="80.819" gradientUnits="userSpaceOnUse"><stop stop-color="#FFFADE"/><stop offset="1" stop-color="#FFFADE" stop-opacity="0"/></linearGradient><linearGradient id="bw" x1="52.386" x2="52.386" y1="77.305" y2="80.819" gradientUnits="userSpaceOnUse"><stop stop-color="#FFFADE"/><stop offset="1" stop-color="#FFFADE" stop-opacity="0"/></linearGradient><linearGradient id="bx" x1="49.012" x2="49.012" y1="70.766" y2="74.28" gradientUnits="userSpaceOnUse"><stop stop-color="#FFFADE"/><stop offset="1" stop-color="#FFFADE" stop-opacity="0"/></linearGradient><linearGradient id="by" x1="49.012" x2="49.012" y1="70.766" y2="74.28" gradientUnits="userSpaceOnUse"><stop stop-color="#FFFADE"/><stop offset="1" stop-color="#FFFADE" stop-opacity="0"/></linearGradient><linearGradient id="bz" x1="45.494" x2="45.494" y1="64.365" y2="67.879" gradientUnits="userSpaceOnUse"><stop stop-color="#FFFADE"/><stop offset="1" stop-color="#FFFADE" stop-opacity="0"/></linearGradient><linearGradient id="bA" x1="45.494" x2="45.494" y1="64.365" y2="67.879" gradientUnits="userSpaceOnUse"><stop stop-color="#FFFADE"/><stop offset="1" stop-color="#FFFADE" stop-opacity="0"/></linearGradient><linearGradient id="bB" x1="52.542" x2="52.542" y1="60.78" y2="64.294" gradientUnits="userSpaceOnUse"><stop stop-color="#FFFADE"/><stop offset="1" stop-color="#FFFADE" stop-opacity="0"/></linearGradient><linearGradient id="bC" x1="52.542" x2="52.542" y1="60.78" y2="64.294" gradientUnits="userSpaceOnUse"><stop stop-color="#FFFADE"/><stop offset="1" stop-color="#FFFADE" stop-opacity="0"/></linearGradient><linearGradient id="bD" x1="56.22" x2="56.22" y1="67.888" y2="71.402" gradientUnits="userSpaceOnUse"><stop stop-color="#FFFADE"/><stop offset="1" stop-color="#FFFADE" stop-opacity="0"/></linearGradient><linearGradient id="bE" x1="56.22" x2="56.22" y1="67.888" y2="71.402" gradientUnits="userSpaceOnUse"><stop stop-color="#FFFADE"/><stop offset="1" stop-color="#FFFADE" stop-opacity="0"/></linearGradient><linearGradient id="bF" x1="61.559" x2="61.559" y1="60.548" y2="64.106" gradientUnits="userSpaceOnUse"><stop stop-color="#FFFADE"/><stop offset="1" stop-color="#FFFADE" stop-opacity="0"/></linearGradient><linearGradient id="bG" x1="61.559" x2="61.559" y1="60.548" y2="64.106" gradientUnits="userSpaceOnUse"><stop stop-color="#FFFADE"/><stop offset="1" stop-color="#FFFADE" stop-opacity="0"/></linearGradient><linearGradient id="bH" x1="63.623" x2="63.623" y1="52.817" y2="56.331" gradientUnits="userSpaceOnUse"><stop stop-color="#FFFADE"/><stop offset="1" stop-color="#FFFADE" stop-opacity="0"/></linearGradient><linearGradient id="bI" x1="63.623" x2="63.623" y1="52.817" y2="56.331" gradientUnits="userSpaceOnUse"><stop stop-color="#FFFADE"/><stop offset="1" stop-color="#FFFADE" stop-opacity="0"/></linearGradient><linearGradient id="bJ" x1="70.292" x2="70.292" y1="55.922" y2="59.428" gradientUnits="userSpaceOnUse"><stop stop-color="#FFFADE"/><stop offset="1" stop-color="#FFFADE" stop-opacity="0"/></linearGradient><linearGradient id="bK" x1="70.292" x2="70.292" y1="55.922" y2="59.428" gradientUnits="userSpaceOnUse"><stop stop-color="#FFFADE"/><stop offset="1" stop-color="#FFFADE" stop-opacity="0"/></linearGradient><linearGradient id="bL" x1="78.378" x2="78.378" y1="51.803" y2="55.362" gradientUnits="userSpaceOnUse"><stop stop-color="#FFFADE"/><stop offset="1" stop-color="#FFFADE" stop-opacity="0"/></linearGradient><linearGradient id="bM" x1="78.378" x2="78.378" y1="51.803" y2="55.362" gradientUnits="userSpaceOnUse"><stop stop-color="#FFFADE"/><stop offset="1" stop-color="#FFFADE" stop-opacity="0"/></linearGradient><linearGradient id="bN" x1="83.83" x2="83.83" y1="45.065" y2="48.578" gradientUnits="userSpaceOnUse"><stop stop-color="#FFFADE"/><stop offset="1" stop-color="#FFFADE" stop-opacity="0"/></linearGradient><linearGradient id="bO" x1="83.83" x2="83.83" y1="45.065" y2="48.578" gradientUnits="userSpaceOnUse"><stop stop-color="#FFFADE"/><stop offset="1" stop-color="#FFFADE" stop-opacity="0"/></linearGradient><linearGradient id="bP" x1="76.363" x2="76.363" y1="42.858" y2="46.372" gradientUnits="userSpaceOnUse"><stop stop-color="#FFFADE"/><stop offset="1" stop-color="#FFFADE" stop-opacity="0"/></linearGradient><linearGradient id="bQ" x1="76.363" x2="76.363" y1="42.858" y2="46.372" gradientUnits="userSpaceOnUse"><stop stop-color="#FFFADE"/><stop offset="1" stop-color="#FFFADE" stop-opacity="0"/></linearGradient><linearGradient id="bR" x1="70.038" x2="70.038" y1="47.538" y2="51.052" gradientUnits="userSpaceOnUse"><stop stop-color="#FFFADE"/><stop offset="1" stop-color="#FFFADE" stop-opacity="0"/></linearGradient><linearGradient id="bS" x1="70.038" x2="70.038" y1="47.538" y2="51.052" gradientUnits="userSpaceOnUse"><stop stop-color="#FFFADE"/><stop offset="1" stop-color="#FFFADE" stop-opacity="0"/></linearGradient><linearGradient id="bT" x1="61.261" x2="61.261" y1="45.465" y2="49.023" gradientUnits="userSpaceOnUse"><stop stop-color="#FFFADE"/><stop offset="1" stop-color="#FFFADE" stop-opacity="0"/></linearGradient><linearGradient id="bU" x1="61.261" x2="61.261" y1="45.465" y2="49.023" gradientUnits="userSpaceOnUse"><stop stop-color="#FFFADE"/><stop offset="1" stop-color="#FFFADE" stop-opacity="0"/></linearGradient><linearGradient id="bV" x1="67.23" x2="67.23" y1="39.344" y2="42.858" gradientUnits="userSpaceOnUse"><stop stop-color="#FFFADE"/><stop offset="1" stop-color="#FFFADE" stop-opacity="0"/></linearGradient><linearGradient id="bW" x1="67.23" x2="67.23" y1="39.344" y2="42.858" gradientUnits="userSpaceOnUse"><stop stop-color="#FFFADE"/><stop offset="1" stop-color="#FFFADE" stop-opacity="0"/></linearGradient><linearGradient id="bX" x1="89.221" x2="89.221" y1="42.529" y2="44.13" gradientUnits="userSpaceOnUse"><stop stop-color="#FFFADE"/><stop offset="1" stop-color="#FFFADE" stop-opacity="0"/></linearGradient><linearGradient id="bY" x1="89.221" x2="89.221" y1="42.529" y2="44.13" gradientUnits="userSpaceOnUse"><stop stop-color="#FFFADE"/><stop offset="1" stop-color="#FFFADE" stop-opacity="0"/></linearGradient><linearGradient id="bZ" x1="94.267" x2="94.267" y1="46.928" y2="49.966" gradientUnits="userSpaceOnUse"><stop stop-color="#FFFADE"/><stop offset="1" stop-color="#FFFADE" stop-opacity="0"/></linearGradient><linearGradient id="ca" x1="94.267" x2="94.267" y1="46.928" y2="49.966" gradientUnits="userSpaceOnUse"><stop stop-color="#FFFADE"/><stop offset="1" stop-color="#FFFADE" stop-opacity="0"/></linearGradient><linearGradient id="cb" x1="88.016" x2="88.016" y1="51.612" y2="55.171" gradientUnits="userSpaceOnUse"><stop stop-color="#FFFADE"/><stop offset="1" stop-color="#FFFADE" stop-opacity="0"/></linearGradient><linearGradient id="cc" x1="88.016" x2="88.016" y1="51.612" y2="55.171" gradientUnits="userSpaceOnUse"><stop stop-color="#FFFADE"/><stop offset="1" stop-color="#FFFADE" stop-opacity="0"/></linearGradient><linearGradient id="cd" x1="71.365" x2="71.365" y1="0" y2="141.669" gradientUnits="userSpaceOnUse"><stop stop-color="#FFFADE"/><stop offset="1" stop-color="#FFFADE" stop-opacity="0"/></linearGradient><linearGradient id="ce" x1="71.365" x2="71.365" y1="0" y2="141.669" gradientUnits="userSpaceOnUse"><stop stop-color="#FFFADE"/><stop offset="1" stop-color="#FFFADE" stop-opacity="0"/></linearGradient></defs></svg>