<svg xmlns="http://www.w3.org/2000/svg" width="400" height="126" fill="none"><rect width="11.043" height="32.674" x="23.923" y="47.875" fill="#7286D3" rx="5.521"/><rect width="11.043" height="54.845" x="44.905" y="37.373" fill="#BA94D1" rx="5.521"/><rect width="11.043" height="18.671" x="63.678" y="54.877" fill="#E97777" rx="5.521"/><rect width="11.043" height="50.178" x="84.659" y="38.54" fill="#FEBE8C" rx="5.521"/><rect width="11.043" height="94.521" x="104.537" y="16.369" fill="#86C8BC" rx="5.521"/><path fill="#3F5372" d="M133.435 84.745V45.269h7.151V78.75h17.386v5.995h-24.537zm43.543.578c-2.968 0-5.532-.617-7.691-1.85-2.146-1.247-3.797-3.007-4.954-5.282-1.156-2.287-1.734-4.98-1.734-8.076 0-3.046.578-5.719 1.734-8.019 1.17-2.313 2.802-4.112 4.896-5.397 2.095-1.298 4.556-1.947 7.383-1.947 1.825 0 3.547.296 5.166.887a11.669 11.669 0 0 1 4.317 2.698c1.26 1.221 2.249 2.776 2.969 4.665.719 1.876 1.079 4.112 1.079 6.708v2.14h-24.268v-4.704h17.58c-.013-1.336-.302-2.525-.868-3.566a6.299 6.299 0 0 0-2.371-2.486c-1.002-.604-2.171-.906-3.508-.906-1.426 0-2.679.347-3.759 1.04a7.176 7.176 0 0 0-2.525 2.7c-.591 1.104-.893 2.319-.906 3.642v4.106c0 1.722.315 3.2.945 4.433.63 1.221 1.51 2.16 2.641 2.815 1.131.642 2.454.963 3.97.963 1.016 0 1.934-.14 2.757-.424a6.12 6.12 0 0 0 2.139-1.291 5.374 5.374 0 0 0 1.369-2.101l6.515.732a10.159 10.159 0 0 1-2.351 4.51c-1.144 1.273-2.609 2.263-4.395 2.97-1.787.693-3.83 1.04-6.13 1.04zm27.588.02c-1.876 0-3.566-.335-5.069-1.003-1.491-.681-2.673-1.683-3.547-3.007-.861-1.323-1.291-2.956-1.291-4.896 0-1.67.308-3.052.925-4.144a7.158 7.158 0 0 1 2.525-2.622c1.066-.655 2.268-1.15 3.604-1.484a29.334 29.334 0 0 1 4.183-.751c1.735-.18 3.142-.341 4.222-.482 1.079-.155 1.863-.386 2.351-.694.501-.322.752-.816.752-1.485v-.115c0-1.452-.431-2.577-1.292-3.373-.861-.797-2.101-1.195-3.72-1.195-1.709 0-3.065.372-4.067 1.117-.989.746-1.658 1.626-2.005 2.641l-6.515-.925c.514-1.8 1.362-3.303 2.545-4.51 1.182-1.221 2.628-2.134 4.337-2.738 1.709-.616 3.598-.925 5.667-.925 1.426 0 2.846.167 4.26.501 1.413.334 2.705.887 3.874 1.658 1.169.758 2.107 1.793 2.814 3.103.72 1.311 1.08 2.95 1.08 4.916v19.815h-6.708v-4.067h-.232c-.424.822-1.021 1.593-1.792 2.313-.758.707-1.716 1.278-2.872 1.715-1.144.424-2.487.636-4.029.636zm1.812-5.128c1.401 0 2.615-.276 3.643-.829 1.028-.565 1.818-1.31 2.371-2.236a5.7 5.7 0 0 0 .848-3.026v-3.489c-.218.18-.591.347-1.118.501a15.79 15.79 0 0 1-1.735.405c-.642.116-1.278.219-1.908.309-.63.09-1.176.167-1.638.23-1.041.142-1.973.374-2.795.695-.823.321-1.472.77-1.947 1.35-.476.564-.713 1.297-.713 2.197 0 1.284.469 2.255 1.407 2.91.938.655 2.133.983 3.585.983zm20.837 4.53V55.138h6.766v4.934h.308c.54-1.709 1.465-3.026 2.776-3.951 1.323-.938 2.833-1.407 4.529-1.407.386 0 .816.019 1.292.057a8.77 8.77 0 0 1 1.214.135v6.42c-.295-.104-.764-.194-1.407-.27-.63-.09-1.24-.136-1.831-.136-1.272 0-2.416.277-3.431.83a6.066 6.066 0 0 0-2.371 2.254c-.578.964-.867 2.076-.867 3.335v17.406h-6.978zm28.499-17.348v17.348h-6.978V55.138h6.669v5.03h.347a8.46 8.46 0 0 1 3.258-3.95c1.503-.978 3.36-1.466 5.57-1.466 2.044 0 3.823.437 5.34 1.31 1.529.875 2.711 2.14 3.547 3.798.848 1.658 1.265 3.669 1.252 6.033v18.852h-6.977V66.973c0-1.98-.514-3.528-1.542-4.646-1.016-1.117-2.423-1.676-4.222-1.676-1.22 0-2.306.27-3.257.809-.938.527-1.677 1.291-2.217 2.294-.527 1.002-.79 2.217-.79 3.643zm72.485 17.772c-1.169 0-2.171-.411-3.007-1.234-.835-.822-1.246-1.824-1.233-3.007-.013-1.156.398-2.146 1.233-2.968.836-.822 1.838-1.234 3.007-1.234 1.131 0 2.114.412 2.95 1.234.848.822 1.278 1.812 1.291 2.968a4.107 4.107 0 0 1-.617 2.14 4.421 4.421 0 0 1-1.542 1.542 4.011 4.011 0 0 1-2.082.559zm19.965.173c-1.876 0-3.566-.334-5.069-1.002-1.491-.681-2.673-1.683-3.547-3.007-.861-1.323-1.292-2.956-1.292-4.896 0-1.67.309-3.052.926-4.144a7.15 7.15 0 0 1 2.525-2.622c1.066-.655 2.268-1.15 3.604-1.484a29.309 29.309 0 0 1 4.183-.751c1.735-.18 3.142-.341 4.221-.482 1.08-.155 1.864-.386 2.352-.694.501-.322.752-.816.752-1.485v-.115c0-1.452-.431-2.577-1.292-3.373-.861-.797-2.101-1.195-3.72-1.195-1.709 0-3.065.372-4.067 1.117-.99.746-1.658 1.626-2.005 2.641l-6.515-.925c.514-1.8 1.362-3.303 2.544-4.51 1.183-1.221 2.628-2.134 4.337-2.738 1.71-.616 3.599-.925 5.667-.925 1.427 0 2.847.167 4.26.501a11.99 11.99 0 0 1 3.875 1.658c1.169.758 2.107 1.793 2.814 3.103.72 1.311 1.079 2.95 1.079 4.916v19.815h-6.707v-4.067h-.232c-.424.822-1.021 1.593-1.792 2.313-.759.707-1.716 1.278-2.872 1.715-1.144.424-2.487.636-4.029.636zm1.812-5.127c1.401 0 2.615-.276 3.643-.829 1.028-.565 1.818-1.31 2.371-2.236a5.7 5.7 0 0 0 .848-3.026v-3.489c-.218.18-.591.347-1.118.501a15.79 15.79 0 0 1-1.735.405c-.642.116-1.278.219-1.908.309-.63.09-1.176.167-1.639.23-1.04.142-1.972.374-2.794.695-.823.321-1.472.77-1.947 1.35-.476.564-.713 1.297-.713 2.197 0 1.284.469 2.255 1.407 2.91.938.655 2.133.983 3.585.983zm20.837 4.53V55.138h6.977v29.607h-6.977zm3.508-33.81c-1.105 0-2.056-.366-2.853-1.098-.797-.745-1.195-1.639-1.195-2.68 0-1.053.398-1.946 1.195-2.679.797-.745 1.748-1.118 2.853-1.118 1.118 0 2.069.373 2.853 1.118.796.733 1.195 1.626 1.195 2.68 0 1.04-.399 1.934-1.195 2.679-.784.732-1.735 1.099-2.853 1.099z"/><path fill="#E97777" d="M296.828 71.483h6.477l3.836 4.973 2.737 3.239 6.573 8.442h-6.939l-4.472-5.667-1.908-2.698-6.304-8.289zm20.567-6.476c0 4.253-.796 7.896-2.39 10.929-1.58 3.02-3.739 5.333-6.476 6.94-2.725 1.605-5.815 2.409-9.272 2.409s-6.554-.804-9.291-2.41c-2.724-1.619-4.883-3.939-6.476-6.958-1.581-3.033-2.371-6.67-2.371-10.91 0-4.254.79-7.89 2.371-10.91 1.593-3.033 3.752-5.352 6.476-6.959 2.737-1.606 5.834-2.41 9.291-2.41 3.457 0 6.547.804 9.272 2.41 2.737 1.607 4.896 3.926 6.476 6.959 1.594 3.02 2.39 6.656 2.39 10.91zm-7.189 0c0-2.994-.469-5.52-1.407-7.576-.926-2.068-2.211-3.63-3.856-4.683-1.644-1.067-3.54-1.6-5.686-1.6s-4.041.533-5.686 1.6c-1.645 1.053-2.936 2.615-3.874 4.684-.926 2.055-1.388 4.58-1.388 7.575 0 2.994.462 5.525 1.388 7.594.938 2.056 2.229 3.618 3.874 4.684 1.645 1.054 3.54 1.58 5.686 1.58s4.042-.526 5.686-1.58c1.645-1.066 2.93-2.628 3.856-4.684.938-2.069 1.407-4.6 1.407-7.594z"/></svg>